<?xml version="1.0" standalone="no"?>
<!DOCTYPE svg PUBLIC "-//W3C//DTD SVG 1.1//EN" "http://www.w3.org/Graphics/SVG/1.1/DTD/svg11.dtd" >
<svg>
<metadata>
Created by FontForge 20090914 at Tue Sep  3 20:59:53 2013
 By www-data
(c) 1998 Mrtsoft
</metadata>
<defs>
<font id="2MehrBold" horiz-adv-x="0" >
  <font-face 
    font-family="2  Mehr"
    font-weight="700"
    font-stretch="normal"
    units-per-em="2048"
    panose-1="0 0 7 0 0 0 0 0 0 0"
    ascent="1638"
    descent="-410"
    bbox="-207.003 -1584 2550 2488"
    underline-thickness="140"
    underline-position="-930"
    unicode-range="U+0020-U+FEFC"
  />
<missing-glyph horiz-adv-x="1024" 
d="M128 0v1251h768v-1251h-768zM256 128h512v995h-512v-995z" />
    <glyph glyph-name="uE818" unicode="&#x651;&#x64b;" 
d="M523 1760c0 -48 -12.9971 -93 -38.9971 -135c-30 -50 -66.667 -75 -110 -75c-36 0 -64.667 19.667 -86 59c-31.333 -67.333 -73.333 -101 -126 -101c-34.667 0 -61.667 16 -81 48c-16.667 26.667 -25 58.667 -25 96c0 96 19 144 57 144
c3.33301 0 11.666 -20.667 24.999 -62s32 -62 56 -62c24.667 0 47.667 24.333 69 73s36.666 73 45.999 73c4 0 11.667 -18 23 -54s24.666 -54 39.999 -54c26.667 0 52 21.5 76 64.5s37 64.5 39 64.5c24 0 36 -26.333 36 -79zM493.003 2127l-24 -131l-460 -142l18 131z
M493.003 2364l-24 -131l-460 -142l18 131z" />
    <glyph glyph-name="uFC5E" unicode="&#x651;&#x64c;" arabic-form="isolated" 
d="M541 1744c0 -48 -12.667 -92.999 -38 -134.999c-29.333 -48 -67 -72 -113 -72c-36 0 -63.667 18.667 -83 56c-31.333 -67.333 -73.333 -101 -126 -101c-34.667 0 -62 16.667 -82 50c-16 27.333 -24 59.666 -24 96.999c0 94 18.667 141 56 141
c3.33301 0 11.5 -20.167 24.5 -60.5s31.833 -60.5 56.5 -60.5c25.333 0 48.5 24.333 69.5 73s36.167 73 45.5 73c4.66699 0 12.5 -18.333 23.5 -55s23.5 -55 37.5 -55c26.667 0 52 21.667 76 65s37 65 39 65c25.333 0 38 -27 38 -81zM516 2152
c0 -34.667 -19.333 -82.001 -58 -142.001l-93 39c-24 -30 -61.333 -61.667 -112 -95c-64.667 -42 -121 -63 -169 -63c-10.667 0 -22 32.333 -34 97c6 1.33301 22.333 8 49 20c2 18 3 34.667 3 50c0 49.333 -14.333 74 -43 74c-11.333 0 -25 -10.833 -41 -32.5
s-25 -32.5 -27 -32.5c-19.333 0 -29 25.333 -29 76c0 28.667 11.833 58.334 35.5 89c23.667 30.667 49.5 46 77.5 46c32 0 58 -13.167 78 -39.5s30 -55.833 30 -88.5c0 -55.333 -4 -93.666 -12 -115c50 27.333 84 54.333 102 81c-40.667 37.333 -61 83.333 -61 138
c0 52.667 14.333 102.667 43 150c33.333 56 73.666 84 120.999 84c75.333 0 113 -48 113 -144c0 -57.333 -12.667 -111.666 -38 -162.999c10.667 -10 32.334 -19.667 65.001 -29zM374 2226c16.667 24.667 25 49 25 73c0 49.333 -17.333 74 -52 74
c-26.667 0 -40 -21.667 -40 -65c0 -15.333 7.33301 -31.666 22 -49c14.667 -17.333 29.667 -28.333 45 -33z" />
    <glyph glyph-name="uFC5F" unicode="&#x651;&#x64d;" arabic-form="isolated" 
d="M518 2179c0 -48.667 -12.667 -93.667 -38 -135c-30 -48 -67.667 -72 -113 -72c-36 0 -63.667 18.667 -83 56c-33.333 -67.333 -75.333 -101 -126 -101c-35.333 0 -63.333 16.333 -84 49c-16 26.667 -24 59 -24 97c0 94.667 19.333 142 58 142c2 0 9.66699 -20.333 23 -61
s32 -61 56 -61c24.667 0 47.667 24.5 69 73.5s37.333 73.5 48 73.5c4.66699 0 12.5 -18.5 23.5 -55.5s23.5 -55.5 37.5 -55.5c26.667 0 52 21.833 76 65.5s37 65.5 39 65.5c25.333 0 38 -27 38 -81zM516 1695l-25 -122l-430 -133l18 122zM516 1915l-25 -121l-430 -133
l18 121z" />
    <glyph glyph-name="uFC60" unicode="&#x651;&#x64e;" arabic-form="isolated" 
d="M531 1714c0 -48 -12.667 -92.999 -38 -134.999c-29.333 -48 -67 -72 -113 -72c-36 0 -63.667 18.667 -83 56c-31.333 -67.333 -73.333 -101 -126 -101c-34.667 0 -62 16.667 -82 50c-16 27.333 -24 59.666 -24 96.999c0 94 18.667 141 56 141
c3.33301 0 11.5 -20.167 24.5 -60.5s31.833 -60.5 56.5 -60.5c25.333 0 48.5 24.333 69.5 73s36.167 73 45.5 73c4.66699 0 12.5 -18.333 23.5 -55s23.5 -55 37.5 -55c26.667 0 52 21.667 76 65s37 65 39 65c25.333 0 38 -27 38 -81zM553 2114l-27 -131l-457 -142l18 131z
" />
    <glyph glyph-name="uFC61" unicode="&#x651;&#x64f;" arabic-form="isolated" 
d="M523 1749c0 -48 -12.998 -93.333 -38.998 -136c-30 -49.333 -67.333 -74 -112 -74c-36 0 -64 19.667 -84 59c-32.667 -68 -74.667 -102 -126 -102c-36 0 -63.667 15.667 -83 47c-16.667 26.667 -25 59 -25 97c0 96.667 19.667 145 59 145c2 0 9.66699 -20.333 23 -61
s31.666 -61 54.999 -61c25.333 0 48.5 24.333 69.5 73s37.167 73 48.5 73c2.66699 0 10 -18.333 22 -55s24.667 -55 38 -55c26.667 0 52.167 21.333 76.5 64s37.166 64 38.499 64c26 0 39 -26 39 -78zM469.002 2114c0 -30.667 -17.332 -73.667 -51.999 -129l-86 36
c-25.333 -30 -59 -59.333 -101 -88c-56 -37.333 -107 -56 -153 -56c-10.667 0 -21.334 29.333 -32.001 88c97.333 25.333 165 64.333 203 117c-38 34.667 -57 76 -57 124c0 49.333 13 95 39 137c30.667 51.333 68 77 112 77c68 0 102 -44.333 102 -133
c0 -49.333 -12 -98 -36 -146c8.66699 -9.33301 29 -18.333 61 -27zM338.003 2181c14.667 22.667 22 45.334 22 68c0 44.667 -15 67 -45 67c-25.333 0 -38 -20.333 -38 -61c0 -12.667 6.83301 -26.834 20.5 -42.5c13.667 -15.667 27.167 -26.167 40.5 -31.5z" />
    <glyph glyph-name="uFC62" unicode="&#x651;&#x650;" arabic-form="isolated" 
d="M511 1967c0 -48.667 -12.665 -93.667 -37.998 -135c-29.333 -48 -67 -72 -113 -72c-36 0 -63.667 18.667 -83 56c-32.667 -66 -75.334 -99 -128.001 -99c-35.333 0 -62.666 16 -81.999 48c-16 26.667 -24 58.667 -24 96c0 94.667 18.667 142 56 142
c3.33301 0 11.833 -20.167 25.5 -60.5s32.167 -60.5 55.5 -60.5c25.333 0 48.5 24.333 69.5 73s36.167 73 45.5 73c6 0 14.167 -18.333 24.5 -55s23.166 -55 38.499 -55c26.667 0 52.167 21.667 76.5 65s37.166 65 38.499 65c25.333 0 38 -27 38 -81zM507.002 1715l-27 -124
l-433 -133l16 122z" />
    <glyph glyph-name="uFDF2" unicode="&#xfedf;&#xfee0;&#xfeea;" horiz-adv-x="1856" arabic-form="isolated" 
d="M1206 1077l-74.999 -33c-0.666992 23.333 -2.33398 47 -5.00098 71c-7.33301 58.667 -20.333 115.667 -39 171l81 51c30 -88.667 45 -159.667 45 -213c0 -22 -2.33301 -37.667 -7 -47zM1386 996c2 -14 2.99902 -28.334 2.99902 -43.001c0 -46 -10.333 -87 -31 -123
c-25.333 -43.333 -59.666 -65 -102.999 -65c-18.667 0 -37.834 5.66699 -57.501 17l-29.5 17l-25 -25c-18 -16 -43 -26.667 -75 -32c-7.33301 -1.33301 -14.333 -2 -21 -2c-33.333 0 -61 14.333 -83 43c-19.333 26 -29 56.333 -29 91c0 29.333 6.33301 63 19 101l107 -9
c-9.33301 -40 -13 -66 -11 -78c0.666992 -11.333 9.33398 -17 26.001 -17c30.667 0 46 22.667 46 68c0 13.333 -1 29 -3 47l109 5c4.66699 -17.333 6 -33.333 4 -48c-2.66699 -22.667 -4 -29.667 -4 -21c0 -3.33301 3.83301 -7.66602 11.5 -12.999s15.5 -7.33301 23.5 -6
c17.333 2.66699 26 13 26 31c0 18.667 -10.333 49.667 -31 93l107 48c6 -18 13 -44.333 21 -79zM1806 649.999c11.333 -433.333 -114.001 -650 -376.001 -650c-92.667 0 -175.667 45 -249 135c-47.333 -90 -133 -135 -257 -135c-190 0 -299.333 114 -328 342l-76 -211
c-121.333 60.667 -198.333 102.334 -231 125.001c-92.667 65.333 -139 134 -139 206c0 65.333 27.333 118.666 82 159.999c41.333 30.667 100.333 56 177 76l169 36l-2 67l213 54c-2.66699 -36.667 -4 -76.667 -4 -120c0 -301.333 52 -452 156 -452
c80.667 0 130.334 33.333 149.001 100c2.66699 10 4 20.667 4 32c0 10.667 -3.83301 38.167 -11.5 82.5s-11.5 87.166 -11.5 128.499l246 87c0 -11.333 -3.66699 -44.666 -11 -99.999s-11 -100.333 -11 -135c0 -130 48.667 -195 146 -195c103.333 0 155 81.333 155 244
c0 23.333 -1 49 -3 77c-7.33301 100.667 -30.333 240.334 -69 419.001l228 77c16.667 -92.667 27.667 -157.334 33 -194.001c12 -86 19 -171.333 21 -256zM591.999 379.999c1.33301 0 0.333984 15.668 -2.99902 47.001c-4 38 -6 66 -6 84c-104 -12 -156 -23.667 -156 -35
c0 -10.667 18.667 -27.334 56 -50.001c39.333 -24.667 75.666 -40 108.999 -46z" />
    <glyph glyph-name="uFEF5" unicode="&#xfedf;&#xfe82;" horiz-adv-x="1066" arabic-form="isolated" 
d="M684 0h-336v283h50c10 8 15 29.333 15 64c0 128.667 -68.667 371 -206 727l245 76c125.333 -275.333 189 -539.333 191 -792l-213 -75h244c58 0 99 11.667 123 35c39.333 39.333 59 119.333 59 240c0 142 -27 346 -81 612l231 76c32.667 -188 49 -369.667 49 -545
c0 -467.333 -123.667 -701 -371 -701zM773 1862c-45.333 -255.333 -175.002 -383 -389.002 -383c-12 0 -30 1 -54 3s-42 3 -54 3c-81.333 0 -147 -28 -197 -84c-36.667 -40.667 -61.334 -91 -74.001 -151l-212 63c22.667 112 70.334 204.333 143.001 277
s157.334 109 254.001 109c14 0 35.333 -1.5 64 -4.5s50.334 -4.5 65.001 -4.5c68 0 119.333 17.167 154 51.5s65 96.5 91 186.5z" />
    <glyph glyph-name="uFEF6" unicode="&#xfee0;&#xfe82;" horiz-adv-x="1247" arabic-form="final" 
d="M1266 0l-107 -0.00195312c-90 0 -154.333 43 -193 129c-64 -86 -154.333 -129 -271 -129h-335v283h50c10 8 15 29.333 15 64c0 128.667 -68.667 371 -206 727l244 76c125.333 -275.333 189 -539.333 191 -792l-213 -75h245c62 0 102 7.33301 120 22
c36 31.333 54 106 54 224c0 139.333 -24.333 353 -73 641l231 76c36.667 -199.333 55 -399.666 55 -600.999v-81c-0.666992 -33.333 -1 -56.666 -1 -69.999c0 -83.333 9 -138 27 -164c21.333 -31.333 67.333 -47 138 -47h29v-283zM780 1842
c-46 -255.333 -175.667 -383 -389 -383c-12.667 0 -31 1 -55 3s-42 3 -54 3c-81.333 0 -147 -28 -197 -84c-36.667 -40.667 -61.334 -91 -74.001 -151l-212 63c22.667 112 70.5 204.333 143.5 277s157.5 109 253.5 109c14.667 0 36.334 -1.5 65.001 -4.5s50 -4.5 64 -4.5
c68 0 119.5 17.167 154.5 51.5s65.5 96.5 91.5 186.5z" />
    <glyph glyph-name="uFEF7" unicode="&#xfedf;&#xfe84;" horiz-adv-x="1008" arabic-form="isolated" 
d="M626 0h-336v283h50c10 8 15 29.333 15 64c0 128.667 -68.333 371 -205 727l244 76c125.333 -275.333 189 -539.333 191 -792l-213 -75h244c58 0 99 11.667 123 35c40 39.333 60 119.333 60 240c0 142 -27.333 346 -82 612l231 76c33.333 -188 50 -369.667 50 -545
c0 -467.333 -124 -701 -372 -701zM382 1447l-341.001 -181l-36 81l110 56c-24 42 -36 84 -36 126c0 63.333 24 118.333 72 165c44.667 43.333 91.667 65 141 65l-6 -146c-10 8.66699 -24.333 13 -43 13c-58 0 -87 -25 -87 -75c0 -19.333 6.66699 -36.666 20 -51.999
s29 -23 47 -23c25.333 0 49.333 7.66699 72 23s36.334 32.666 41.001 51.999z" />
    <glyph glyph-name="uFEF8" unicode="&#xfee0;&#xfe84;" horiz-adv-x="1177" arabic-form="final" 
d="M1196 0l-105.998 -0.000976562c-90.667 0 -155.334 43 -194.001 129c-64 -86 -154 -129 -270 -129h-336v283h50c10 8 15 29.333 15 64c0 128.667 -68.333 371 -205 727l244 76c125.333 -275.333 189 -539.333 191 -792l-213 -75h244c62.667 0 102.667 7.33301 120 22
c36.667 31.333 55 106 55 224c0 139.333 -24.667 353 -74 641l231 76c37.333 -199.333 56 -399.666 56 -600.999c0 -20.667 -0.333008 -47.667 -1 -81v-70c0 -83.333 8.66699 -138 26 -164c21.333 -31.333 67.666 -47 138.999 -47h28v-283zM380.002 1466l-340 -181.001
l-37 80l111 57c-24 42 -36 84 -36 126c0 62.667 24 117.334 72 164.001c44 43.333 90.667 65 140 65l-6 -145c-10 8.66699 -24 13 -42 13c-58.667 0 -88 -25.333 -88 -76c0 -18.667 6.66699 -35.834 20 -51.501s29 -23.5 47 -23.5c26 0 50.167 7.83301 72.5 23.5
s35.833 32.834 40.5 51.501z" />
    <glyph glyph-name="uFEF9" unicode="&#xfedf;&#xfe88;" horiz-adv-x="1008" arabic-form="isolated" 
d="M626 0h-336v283h50c10 8 15 29.333 15 64c0 128.667 -68.333 371 -205 727l244 76c125.333 -275.333 189 -539.333 191 -792l-213 -75h244c58 0 99 11.667 123 35c40 39.333 60 119.333 60 240c0 142 -27.333 346 -82 612l231 76c33.333 -188 50 -369.667 50 -545
c0 -467.333 -124 -701 -372 -701zM391 -401l-350.001 -172.001l-36 80l110 57c-24 42 -36 84 -36 126c0 62.667 24 117.334 72 164.001c44.667 43.333 91.667 65 141 65l-6 -145c-10 8.66699 -24.333 13 -43 13c-58 0 -87 -25.333 -87 -76c0 -18.667 6.66699 -35.667 20 -51
s29 -23 47 -23c25.333 0 49.333 7.66699 72 23s36.334 32.333 41.001 51z" />
    <glyph glyph-name="uFEFA" unicode="&#xfee0;&#xfe88;" horiz-adv-x="1177" arabic-form="final" 
d="M1196 0l-105.998 -0.000976562c-90.667 0 -155.334 43 -194.001 129c-64 -86 -154 -129 -270 -129h-336v283h50c10 8 15 29.333 15 64c0 128.667 -68.333 371 -205 727l244 76c125.333 -275.333 189 -539.333 191 -792l-213 -75h244c62.667 0 102.667 7.33301 120 22
c36.667 31.333 55 106 55 224c0 139.333 -24.667 353 -74 641l231 76c37.333 -199.333 56 -399.666 56 -600.999c0 -20.667 -0.333008 -47.667 -1 -81v-70c0 -83.333 8.66699 -138 26 -164c21.333 -31.333 67.666 -47 138.999 -47h28v-283zM513.002 -411.001l-354 -176
l-36 80l110 57c-24 42 -36 84 -36 126c0 62.667 24 117.667 72 165c44 43.333 90.667 65 140 65l-5 -146c-10.667 8.66699 -25 13 -43 13c-58.667 0 -88 -25 -88 -75c0 -19.333 6.66699 -36.666 20 -51.999s29 -23 47 -23c26 0 50.333 7.66699 73 23s36 32.666 40 51.999z
" />
    <glyph glyph-name="uFEFB" unicode="&#xfedf;&#xfe8e;" horiz-adv-x="1008" arabic-form="isolated" 
d="M626 0h-336v283h50c10 8 15 29.333 15 64c0 128.667 -68.333 371 -205 727l244 76c125.333 -275.333 189 -539.333 191 -792l-213 -75h244c58 0 99 11.667 123 35c40 39.333 60 119.333 60 240c0 142 -27.333 346 -82 612l231 76c33.333 -188 50 -369.667 50 -545
c0 -467.333 -124 -701 -372 -701z" />
    <glyph glyph-name="uFEFC" unicode="&#xfee0;&#xfe8e;" horiz-adv-x="1177" arabic-form="final" 
d="M1196 0l-105.998 -0.000976562c-90.667 0 -155.334 43 -194.001 129c-64 -86 -154 -129 -270 -129h-336v283h50c10 8 15 29.333 15 64c0 128.667 -68.333 371 -205 727l244 76c125.333 -275.333 189 -539.333 191 -792l-213 -75h244c62.667 0 102.667 7.33301 120 22
c36.667 31.333 55 106 55 224c0 139.333 -24.667 353 -74 641l231 76c37.333 -199.333 56 -399.666 56 -600.999c0 -20.667 -0.333008 -47.667 -1 -81v-70c0 -83.333 8.66699 -138 26 -164c21.333 -31.333 67.666 -47 138.999 -47h28v-283z" />
    <glyph glyph-name="u0622" unicode="&#x622;" horiz-adv-x="1012" arabic-form="isolated" 
d="M1095 1679c-45.333 -256 -175.002 -383.999 -389.002 -383.999c-12 0 -30 1 -54 3s-42 3 -54 3c-81.333 0 -147 -27.667 -197 -83c-36.667 -40.667 -61.334 -91.334 -74.001 -152.001l-212 63c22.667 112.667 70.334 205.167 143.001 277.5s157.334 108.5 254.001 108.5
c14 0 35.333 -1.33301 64 -4s50.334 -4 65.001 -4c68 0 119.5 17 154.5 51s65.5 96.333 91.5 187zM715.998 60.001l-233 -60.002c31.333 202 41.333 409.333 30 622c-7.33301 132.667 -12.666 218.334 -15.999 257.001c-10 121.333 -24 218.333 -42 291l232 76
c26 -121.333 46.333 -310.666 61 -567.999c13.333 -248 2.66602 -454 -32.001 -618z" />
    <glyph glyph-name="u0623" unicode="&#x623;" horiz-adv-x="690" arabic-form="isolated" 
d="M556 63l-233 -60.002c31.333 202 41.333 409.333 30 622c-7.33301 132.667 -12.666 218.334 -15.999 257.001c-10 121.333 -24 218 -42 290l232 77c26 -121.333 46.333 -310.666 61 -567.999c13.333 -248 2.66602 -454 -32.001 -618zM575 1483l-340 -181.001l-37 80
l111 57c-24 42 -36 84 -36 126c0 62.667 24 117.334 72 164.001c44 43.333 90.667 65 140 65l-6 -145c-10 8.66699 -24.333 13 -43 13c-58 0 -87 -25.333 -87 -76c0 -18.667 6.66699 -35.834 20 -51.501s29 -23.5 47 -23.5c26 0 50.167 7.83301 72.5 23.5
s35.833 32.834 40.5 51.501z" />
    <glyph glyph-name="u0624" unicode="&#x624;" horiz-adv-x="890" arabic-form="isolated" 
d="M687 895l-377 -201l-41 90l123 62c-26.667 47.333 -40 94.333 -40 141c0 70 26.667 131 80 183c48.667 47.333 100.667 71 156 71l-7 -161c-11.333 10 -27 15 -47 15c-25.333 0 -47.333 -7 -66 -21c-21.333 -16 -32 -37.333 -32 -64c0 -20.667 7.5 -39.5 22.5 -56.5
s32.5 -25.5 52.5 -25.5c28.667 0 55.5 8.5 80.5 25.5s40.167 35.833 45.5 56.5zM893 186c0 -208.667 -74.999 -398.333 -224.999 -569c-152.667 -172.667 -325.334 -259 -518.001 -259l38 281c115.333 0 221.333 41 318 123c91.333 78 137 158.667 137 242
c-10.667 -1.33301 -22 -2 -34 -2c-77.333 0 -143.333 17.667 -198 53c-67.333 43.333 -101 105.333 -101 186c0 102 34 195 102 279c63.333 78.667 127.333 118 192 118c74.667 0 139 -35 193 -105c64 -83.333 96 -199 96 -347zM716.001 267.001
c-4.66699 37.333 -21.999 69.334 -51.999 96.001s-66 40 -108 40c-42.667 0 -64 -20.333 -64 -61c0 -10.667 2.66699 -19.334 8 -26.001c35.333 -38.667 82.666 -58 141.999 -58c24 0 48.667 3 74 9z" />
    <glyph glyph-name="u0625" unicode="&#x625;" horiz-adv-x="690" arabic-form="isolated" 
d="M556 63l-233 -60.002c31.333 202 41.333 409.333 30 622c-7.33301 132.667 -12.666 218.334 -15.999 257.001c-10 121.333 -24 218 -42 290l232 77c26 -121.333 46.333 -310.666 61 -567.999c13.333 -248 2.66602 -454 -32.001 -618zM645 -381.002l-340 -181.001l-37 81
l111 56c-24 42 -36 84.333 -36 127c0 62.667 24 117.334 72 164.001c44 43.333 90.667 65 140 65l-6 -146c-10 8.66699 -24 13 -42 13c-58.667 0 -88 -25 -88 -75c0 -19.333 6.66699 -36.666 20 -51.999s29 -23 47 -23c26 0 50.333 7.66699 73 23s36 32.666 40 51.999z" />
    <glyph glyph-name="u0626" unicode="&#x626;" horiz-adv-x="1612" arabic-form="isolated" 
d="M1612 460c-22.667 3.33301 -47.002 4.99707 -73.002 4.99707c-76.667 0 -144.334 -10.667 -203.001 -32c-64.667 -23.333 -97 -53 -97 -89c0 -18.667 27 -35.667 81 -51c74.667 -20.667 125.334 -39.667 152.001 -57c54.667 -35.333 82 -86.333 82 -153
c0 -202.667 -104 -367 -312 -493c-167.333 -101.333 -336.333 -152 -507 -152c-150 0 -279.333 36.333 -388 109c-131.333 88 -197 212 -197 372c0 148.667 74.333 295.334 223 440.001c90 87.333 220.333 182.333 391 285v-287
c-99.333 -39.333 -191.333 -94.666 -276 -165.999c-99.333 -84 -149 -161 -149 -231c0 -72 45.667 -129.333 137 -172c84.667 -40 190.334 -60 317.001 -60c140 0 268.333 31.667 385 95c102.667 56.667 154 108.667 154 156c0 28.667 -31.667 53 -95 73
c-113.333 36 -172.666 55 -177.999 57c-64 30 -96 71 -96 123c0 136.667 81 257.334 243 362.001c134 87.333 269.333 137.333 406 150v-284zM871.998 852.997l-340 -181l-36 81l110 56c-24 42 -36 84 -36 126c0 63.333 24 118.333 72 165c44 43.333 90.667 65 140 65
l-6 -146c-10 8.66699 -24 13 -42 13c-58.667 0 -88 -25 -88 -75c0 -19.333 6.66699 -36.666 20 -51.999s29 -23 47 -23c26 0 50.333 7.66699 73 23s36 32.666 40 51.999z" />
    <glyph glyph-name="u0627" unicode="&#x627;" horiz-adv-x="448" arabic-form="isolated" 
d="M410 60l-233 -60.002c31.333 202 41.333 409.333 30 622c-7.33301 132.667 -12.333 218.334 -15 257.001c-10 121.333 -24 218.333 -42 291l232 76c25.333 -121.333 45.333 -310.666 60 -567.999c14 -248 3.33301 -454 -32 -618z" />
    <glyph glyph-name="u0628" unicode="&#x628;" horiz-adv-x="1792" arabic-form="isolated" 
d="M1792 434c0 -134.667 -94 -242.664 -282 -323.997c-168 -73.333 -369.333 -110 -604 -110c-209.333 0 -384 30.333 -524 91c-154.667 67.333 -232 160 -232 278c0 143.333 120.333 294 361 452c100.667 65.333 221 129.666 361 192.999v-284
c-346 -102 -519 -200.333 -519 -295c0 -46.667 60.667 -84.334 182 -113.001c112 -26 247.333 -39 406 -39c174 0 320 15.667 438 47c134.667 36 202 86 202 150c0 31.333 -24 96.666 -72 195.999l229 99c36 -77.333 54 -191 54 -341zM821 -392.997v259h257v-259h-257z" />
    <glyph glyph-name="u0629" unicode="&#x629;" horiz-adv-x="989" arabic-form="isolated" 
d="M668 1193l-378.001 -202.001l-40 90l123 63c-26.667 46.667 -40 93.334 -40 140.001c0 70 26.667 131 80 183c48.667 48 100.334 72 155.001 72l-6 -161c-11.333 9.33301 -27 14 -47 14c-25.333 0 -47.333 -7 -66 -21c-21.333 -16 -32 -37 -32 -63
c0 -21.333 7.5 -40.5 22.5 -57.5s32.5 -25.5 52.5 -25.5c28.667 0 55.5 8.5 80.5 25.5s39.833 36.167 44.5 57.5zM988.999 373.999c0 -78.667 -34 -156 -102 -232c-85.333 -94.667 -196.333 -142 -333 -142c-116 0 -212.333 35 -289 105s-115 161 -115 273
c0 100 44.333 198 133 294c42.667 47.333 140 130.333 292 249c276 -204.667 414 -387 414 -547zM721.999 409.999c0 30.667 -24.333 70 -73 118c-38.667 38 -80.667 71.333 -126 100c-36 -29.333 -69.333 -64 -100 -104c-36 -48.667 -54 -89 -54 -121
c0 -89.333 56.333 -134 169 -134c122.667 0 184 47 184 141z" />
    <glyph glyph-name="u062A" unicode="&#x62a;" horiz-adv-x="1792" arabic-form="isolated" 
d="M1792 434c0 -134.667 -94 -242.664 -282 -323.997c-168 -73.333 -369.333 -110 -604 -110c-209.333 0 -384 30.333 -524 91c-154.667 67.333 -232 160 -232 278c0 143.333 120.333 294 361 452c100.667 65.333 221 129.666 361 192.999v-284
c-346 -102 -519 -200.333 -519 -295c0 -46.667 60.667 -84.334 182 -113.001c112 -26 247.333 -39 406 -39c174 0 320 15.667 438 47c134.667 36 202 86 202 150c0 31.333 -24 96.666 -72 195.999l229 99c36 -77.333 54 -191 54 -341zM1298 762.003v259h257v-259h-257z
M964 762.003v259h257v-259h-257z" />
    <glyph glyph-name="u062B" unicode="&#x62b;" horiz-adv-x="1792" arabic-form="isolated" 
d="M1792 434c0 -134.667 -94 -242.664 -282 -323.997c-168 -73.333 -369.333 -110 -604 -110c-209.333 0 -384 30.333 -524 91c-154.667 67.333 -232 160 -232 278c0 143.333 120.333 294 361 452c100.667 65.333 221 129.666 361 192.999v-284
c-346 -102 -519 -200.333 -519 -295c0 -46.667 60.667 -84.334 182 -113.001c112 -26 247.333 -39 406 -39c174 0 320 15.667 438 47c134.667 36 202 86 202 150c0 31.333 -24 96.666 -72 195.999l229 99c36 -77.333 54 -191 54 -341zM1379 1097h-257v259h257v-259z
M1545 761.003h-257v259h257v-259zM1212 761.003h-257v259h257v-259z" />
    <glyph glyph-name="u062C" unicode="&#x62c;" horiz-adv-x="1076" arabic-form="isolated" 
d="M385 -278c0 -108.667 53.001 -199.333 159.001 -272c113.333 -78 262.333 -117 447 -117c27.333 0 55 1 83 3v-278c-34.667 -2.66699 -68.667 -4 -102 -4c-244 0 -443.667 62.667 -599 188s-233 285.333 -233 480c0 226.667 150.333 464 451 712
c-69.333 58.667 -149 88 -239 88c-66.667 0 -134 -13.667 -202 -41v258c56 34.667 123.333 52 202 52c56 0 115.667 -12.667 179 -38c9.33301 -4 58.666 -27.667 147.999 -71c81.333 -40 186 -60 314 -60c26 0 48.667 1.33301 68 4v-241
c-175.333 -48 -328.333 -131 -459 -249c-144.667 -130.667 -217 -268.667 -217 -414zM804.001 -344.999v259h257v-259h-257z" />
    <glyph glyph-name="u062D" unicode="&#x62d;" horiz-adv-x="1074" arabic-form="isolated" 
d="M385 -278c0 -108.667 53.001 -199.333 159.001 -272c113.333 -78 262.333 -117 447 -117c27.333 0 55 1 83 3v-278c-34.667 -2.66699 -68.667 -4 -102 -4c-244 0 -443.667 62.667 -599 188s-233 285.333 -233 480c0 226.667 150.333 464 451 712
c-69.333 58.667 -149 88 -239 88c-66.667 0 -134 -13.667 -202 -41v258c56 34.667 123.333 52 202 52c56 0 115.667 -12.667 179 -38c9.33301 -4 58.666 -27.667 147.999 -71c81.333 -40 186 -60 314 -60c26 0 48.667 1.33301 68 4v-241
c-175.333 -48 -328.333 -131 -459 -249c-144.667 -130.667 -217 -268.667 -217 -414z" />
    <glyph glyph-name="u062E" unicode="&#x62e;" horiz-adv-x="1076" arabic-form="isolated" 
d="M385 -278c0 -108.667 53.001 -199.333 159.001 -272c113.333 -78 262.333 -117 447 -117c27.333 0 55 1 83 3v-278c-34.667 -2.66699 -68.667 -4 -102 -4c-244 0 -443.667 62.667 -599 188s-233 285.333 -233 480c0 226.667 150.333 464 451 712
c-69.333 58.667 -149 88 -239 88c-66.667 0 -134 -13.667 -202 -41v258c56 34.667 123.333 52 202 52c56 0 115.667 -12.667 179 -38c9.33301 -4 58.666 -27.667 147.999 -71c81.333 -40 186 -60 314 -60c26 0 48.667 1.33301 68 4v-241
c-175.333 -48 -328.333 -131 -459 -249c-144.667 -130.667 -217 -268.667 -217 -414zM447.001 987.001v259h257v-259h-257z" />
    <glyph glyph-name="u062F" unicode="&#x62f;" horiz-adv-x="921" arabic-form="isolated" 
d="M921 443c0 -295.333 -196.667 -443 -590 -443h-181v283h270c97.333 0 164 3.66699 200 11c78 16 117 51.333 117 106c0 72 -46.667 155.333 -140 250c-89.333 90 -190 160.333 -302 211v281c417.333 -189.333 626 -422.333 626 -699z" />
    <glyph glyph-name="u0630" unicode="&#x630;" horiz-adv-x="921" arabic-form="isolated" 
d="M921 443c0 -295.333 -196.667 -443 -590 -443h-181v283h270c97.333 0 164 3.66699 200 11c78 16 117 51.333 117 106c0 72 -46.667 155.333 -140 250c-89.333 90 -190 160.333 -302 211v281c417.333 -189.333 626 -422.333 626 -699zM190 1238v258h257v-258h-257z" />
    <glyph glyph-name="u0631" unicode="&#x631;" horiz-adv-x="722" arabic-form="isolated" 
d="M722 32c0 -188.667 -53.999 -351.999 -161.999 -489.999c-102.667 -130.667 -239.334 -222 -410.001 -274v282c254 85.333 381 226.666 381 423.999c0 64 -17.667 137 -53 219c-34 78.667 -74.333 144 -121 196l229 123c22 -14.667 49.667 -75 83 -181
c35.333 -114 53 -213.667 53 -299z" />
    <glyph glyph-name="u0632" unicode="&#x632;" horiz-adv-x="723" arabic-form="isolated" 
d="M722 32c0 -188.667 -53.999 -351.999 -161.999 -489.999c-102.667 -130.667 -239.334 -222 -410.001 -274v282c254 85.333 381 226.666 381 423.999c0 64 -17.667 137 -53 219c-34 78.667 -74.333 144 -121 196l229 123c22 -14.667 49.667 -75 83 -181
c35.333 -114 53 -213.667 53 -299zM303.001 748.001v259h257v-259h-257z" />
    <glyph glyph-name="u0633" unicode="&#x633;" horiz-adv-x="2465" arabic-form="isolated" 
d="M2465 545c0 -150 -32.335 -274.669 -97.002 -374.002c-73.333 -114 -176.666 -171 -309.999 -171c-88 0 -155.667 41 -203 123c-58.667 -82 -115 -123 -169 -123h-71c-28.667 0 -52 6.33301 -70 19c-32 -168.667 -126.667 -310 -284 -424
c-152.667 -109.333 -321.667 -164 -507 -164c-184.667 0 -332.667 47 -444 141c-107.333 90.667 -161 207.667 -161 351c0 142.667 69 283.334 207 422.001c116.667 118 273.334 226 470.001 324v-275c-109.333 -42.667 -213 -102.667 -311 -180
c-118.667 -92 -178 -175 -178 -249c0 -72 45 -130 135 -174c86.667 -42.667 195 -64 325 -64c165.333 0 301 35.333 407 106c114.667 76.667 172 182.334 172 317.001c0 116 -34.667 234.333 -104 355l243 78c22.667 -51.333 41.334 -122.666 56.001 -213.999
c9.33301 -57.333 25.666 -86 48.999 -86h50c35.333 0 79.333 41.667 132 125c46 74 73 132.333 81 175l201 -74c-0.666992 -2.66699 -32.334 -64.334 -95 -185.001c-2 -3.33301 -3 -7 -3 -11c0 -20 14 -30 42 -30h130c62 0 93 31 93 93c0 85.333 -15.667 164.333 -47 237
l254 72c4.66699 -34 7 -80.667 7 -140z" />
    <glyph glyph-name="u0634" unicode="&#x634;" horiz-adv-x="2465" arabic-form="isolated" 
d="M2465 545c0 -150 -32.335 -274.669 -97.002 -374.002c-73.333 -114 -176.666 -171 -309.999 -171c-88 0 -155.667 41 -203 123c-58.667 -82 -115 -123 -169 -123h-71c-28.667 0 -52 6.33301 -70 19c-32 -168.667 -126.667 -310 -284 -424
c-152.667 -109.333 -321.667 -164 -507 -164c-184.667 0 -332.667 47 -444 141c-107.333 90.667 -161 207.667 -161 351c0 142.667 69 283.334 207 422.001c116.667 118 273.334 226 470.001 324v-275c-109.333 -42.667 -213 -102.667 -311 -180
c-118.667 -92 -178 -175 -178 -249c0 -72 45 -130 135 -174c86.667 -42.667 195 -64 325 -64c165.333 0 301 35.333 407 106c114.667 76.667 172 182.334 172 317.001c0 116 -34.667 234.333 -104 355l243 78c22.667 -51.333 41.334 -122.666 56.001 -213.999
c9.33301 -57.333 25.666 -86 48.999 -86h50c35.333 0 79.333 41.667 132 125c46 74 73 132.333 81 175l201 -74c-0.666992 -2.66699 -32.334 -64.334 -95 -185.001c-2 -3.33301 -3 -7 -3 -11c0 -20 14 -30 42 -30h130c62 0 93 31 93 93c0 85.333 -15.667 164.333 -47 237
l254 72c4.66699 -34 7 -80.667 7 -140zM1992 1068h-257v259h257v-259zM2159 731.998h-257v259h257v-259zM1825 731.998h-257v259h257v-259z" />
    <glyph glyph-name="u0635" unicode="&#x635;" horiz-adv-x="2392" arabic-form="isolated" 
d="M1615 0c-28 0 -51.334 6.66309 -70.001 19.9961c-32 -169.333 -126.667 -310.666 -284 -423.999c-152.667 -110 -321.667 -165 -507 -165c-184.667 0 -332.667 47 -444 141c-107.333 90.667 -161 207.667 -161 351c0 142.667 69 283.334 207 422.001
c116.667 118 273.334 226 470.001 324v-275c-109.333 -42.667 -213 -102.667 -311 -180c-118.667 -92 -178 -175 -178 -249c0 -72 45 -130 135 -174c86.667 -42.667 195 -64 325 -64c165.333 0 301 35.333 407 106c114.667 76.667 172 182.334 172 317.001
c0 116 -34.667 234.333 -104 355l243 78c22.667 -51.333 41.334 -122.666 56.001 -213.999c9.33301 -57.333 25.666 -86 48.999 -86h77c103.333 0 201.333 11 294 33c111.333 26.667 177.666 63 199 109c8.66699 16.667 13 31 13 43c0 30.667 -26.333 46 -79 46
c-62.667 0 -127.667 -17.333 -195 -52c-76.667 -40 -138.334 -94 -185.001 -162v253c44 58 100.833 104.5 170.5 139.5s140.167 52.5 211.501 52.5c86 0 152.667 -25.667 200 -77c44 -46.667 66 -108 66 -184c0 -136 -68.333 -252 -205 -348
c-128.667 -90.667 -273 -136 -433 -136h-139z" />
    <glyph glyph-name="u0636" unicode="&#x636;" horiz-adv-x="2392" arabic-form="isolated" 
d="M1615 0c-28 0 -51.334 6.66309 -70.001 19.9961c-32 -169.333 -126.667 -310.666 -284 -423.999c-152.667 -110 -321.667 -165 -507 -165c-184.667 0 -332.667 47 -444 141c-107.333 90.667 -161 207.667 -161 351c0 142.667 69 283.334 207 422.001
c116.667 118 273.334 226 470.001 324v-275c-109.333 -42.667 -213 -102.667 -311 -180c-118.667 -92 -178 -175 -178 -249c0 -72 45 -130 135 -174c86.667 -42.667 195 -64 325 -64c165.333 0 301 35.333 407 106c114.667 76.667 172 182.334 172 317.001
c0 116 -34.667 234.333 -104 355l243 78c22.667 -51.333 41.334 -122.666 56.001 -213.999c9.33301 -57.333 25.666 -86 48.999 -86h77c103.333 0 201.333 11 294 33c111.333 26.667 177.666 63 199 109c8.66699 16.667 13 31 13 43c0 30.667 -26.333 46 -79 46
c-62.667 0 -127.667 -17.333 -195 -52c-76.667 -40 -138.334 -94 -185.001 -162v253c44 58 100.833 104.5 170.5 139.5s140.167 52.5 211.501 52.5c86 0 152.667 -25.667 200 -77c44 -46.667 66 -108 66 -184c0 -136 -68.333 -252 -205 -348
c-128.667 -90.667 -273 -136 -433 -136h-139zM1744 821.996v258h257v-258h-257z" />
    <glyph glyph-name="u0637" unicode="&#x637;" horiz-adv-x="923" arabic-form="isolated" 
d="M275 553c14.667 18 30.001 35.334 46.001 52.001c12 139.333 14.667 250.666 8 333.999c-4 48 -22 125 -54 231l256 76c12 -52 24.667 -127.333 38 -226c4 -82.667 1.66699 -178 -7 -286c32.667 7.33301 64.667 11 96 11c85.333 0 152 -25.667 200 -77
c43.333 -46.667 65 -108 65 -184c0 -136 -68.333 -252 -205 -348c-128.667 -90.667 -272.667 -136 -432 -136h-136v283h78c103.333 0 201.666 11 294.999 33c110.667 26.667 177 63 199 109c8 16.667 12 31 12 43c0 30.667 -26 46 -78 46
c-63.333 0 -128.666 -17.333 -195.999 -52c-76.667 -40 -138.334 -94 -185.001 -162v253z" />
    <glyph glyph-name="u0638" unicode="&#x638;" horiz-adv-x="932" arabic-form="isolated" 
d="M275 553c14.667 18 30.001 35.334 46.001 52.001c12 139.333 14.667 250.666 8 333.999c-4 48 -22 125 -54 231l256 76c12 -52 24.667 -127.333 38 -226c4 -82.667 1.66699 -178 -7 -286c32.667 7.33301 64.667 11 96 11c85.333 0 152 -25.667 200 -77
c43.333 -46.667 65 -108 65 -184c0 -136 -68.333 -252 -205 -348c-128.667 -90.667 -272.667 -136 -432 -136h-136v283h78c103.333 0 201.666 11 294.999 33c110.667 26.667 177 63 199 109c8 16.667 12 31 12 43c0 30.667 -26 46 -78 46
c-63.333 0 -128.666 -17.333 -195.999 -52c-76.667 -40 -138.334 -94 -185.001 -162v253zM675.001 987.001v259h257v-259h-257z" />
    <glyph glyph-name="u0639" unicode="&#x639;" horiz-adv-x="1136" arabic-form="isolated" 
d="M1137 -942c-49.333 -3.33301 -96.998 -5.00098 -142.998 -5.00098c-273.333 0 -483.333 57 -630 171c-142.667 110.667 -214 266.334 -214 467.001c0 119.333 42.667 246.333 128 381c73.333 114.667 143.666 190.334 210.999 227.001c-34.667 22.667 -77 68 -127 136
c-56 74.667 -84 131 -84 169c0 85.333 64.667 184.333 194 297c124 107.333 253.667 183.333 389 228v-278c-12.667 2.66699 -26.334 4 -41.001 4c-62 0 -121.333 -18.5 -178 -55.5s-85 -77.833 -85 -122.5c0 -48 21.833 -89.833 65.5 -125.5s95.5 -53.5 155.5 -53.5
c96 0 188.333 24 277 72v-269l-217 -38c-104.667 -18.667 -205.667 -89.334 -303 -212.001s-146 -239.667 -146 -351c0 -124.667 59 -221 177 -289c108 -61.333 251.333 -92 430 -92c45.333 0 92 2 140 6z" />
    <glyph glyph-name="u063A" unicode="&#x63a;" horiz-adv-x="1139" arabic-form="isolated" 
d="M1137 -942c-49.333 -3.33301 -96.998 -5.00098 -142.998 -5.00098c-273.333 0 -483.333 57 -630 171c-142.667 110.667 -214 266.334 -214 467.001c0 119.333 42.667 246.333 128 381c73.333 114.667 143.666 190.334 210.999 227.001c-34.667 22.667 -77 68 -127 136
c-56 74.667 -84 131 -84 169c0 85.333 64.667 184.333 194 297c124 107.333 253.667 183.333 389 228v-278c-12.667 2.66699 -26.334 4 -41.001 4c-62 0 -121.333 -18.5 -178 -55.5s-85 -77.833 -85 -122.5c0 -48 21.833 -89.833 65.5 -125.5s95.5 -53.5 155.5 -53.5
c96 0 188.333 24 277 72v-269l-217 -38c-104.667 -18.667 -205.667 -89.334 -303 -212.001s-146 -239.667 -146 -351c0 -124.667 59 -221 177 -289c108 -61.333 251.333 -92 430 -92c45.333 0 92 2 140 6zM604.002 1225v259h257v-259h-257z" />
    <glyph glyph-name="u0641" unicode="&#x641;" horiz-adv-x="1801" arabic-form="isolated" 
d="M1602 635c-5.33301 36.667 -22.333 68 -51 94c-30.667 27.333 -67 41 -109 41c-43.333 0 -65 -19.667 -65 -59c0 -10.667 3 -19.667 9 -27c34.667 -40.667 78.334 -61 131.001 -61c21.333 0 49.666 4 84.999 12zM1569 381
c-29.333 -5.33301 -57.667 -8.00098 -85 -8.00098c-81.333 0 -147 20.333 -197 61c-52.667 42.667 -79 101.334 -79 176.001c0 102 27.833 194.5 83.5 277.5s119.167 124.5 190.5 124.5c111.333 0 196.333 -67.333 255 -202c42.667 -98 64 -202 64 -312
c0 -332 -291 -498 -873 -498c-518.667 0 -778 118.667 -778 356c0 120.667 88.333 249.667 265 387c142.667 111.333 295 197.333 457 258v-275c-91.333 -18 -197.333 -58.667 -318 -122c-134 -71.333 -201 -132 -201 -182c0 -92 191.667 -138 575 -138
c150 0 286.333 7.66699 409 23c146.667 18 224 42.667 232 74zM1357 1068v259h257v-259h-257z" />
    <glyph glyph-name="u0642" unicode="&#x642;" horiz-adv-x="1577" arabic-form="isolated" 
d="M1378 315c-5.33301 37.333 -22.3311 69 -50.998 95c-30.667 27.333 -67.334 41 -110.001 41c-43.333 0 -65 -20 -65 -60c0 -10 3.33301 -19 10 -27c35.333 -41.333 78.666 -62 129.999 -62c23.333 0 52 4.33301 86 13zM754.002 -569
c-184.667 0 -332.669 46.999 -444.002 140.999c-107.333 90.667 -161 207.667 -161 351c0 142.667 69 283.334 207 422.001c116.667 118 273.334 226 470.001 324v-275c-109.333 -42.667 -213 -102.667 -311 -180c-118.667 -92 -178 -175 -178 -249c0 -72 45 -130 135 -174
c86.667 -42.667 195 -64 325 -64c159.333 0 289.666 30 390.999 90c104.667 61.333 157 142.666 157 243.999c-29.333 -4.66699 -57.666 -7 -84.999 -7c-82 0 -148 20.333 -198 61c-52 42.667 -78 101 -78 175c0 102 27.833 194.167 83.5 276.5s119.167 123.5 190.5 123.5
c94.667 0 173.334 -53.667 236.001 -161c55.333 -94.667 83 -198.667 83 -312c0 -235.333 -84 -427.666 -252 -576.999c-158 -139.333 -348.333 -209 -571 -209zM1169 862.999v259h256v-259h-256zM835 862.999v259h257v-259h-257z" />
    <glyph glyph-name="u0643" unicode="&#x643;" horiz-adv-x="2118" arabic-form="isolated" 
d="M925 0c-193.333 0 -352.667 19.002 -478 57.002c-198 59.333 -297 162 -297 308c0 120.667 92.333 249.667 277 387c146 109.333 302.667 195 470 257l1 -275c-98 -18.667 -206 -55.334 -324 -110.001c-138 -64 -207 -120.667 -207 -170c0 -54.667 62 -98 186 -130
c105.333 -26.667 229.333 -40 372 -40c202 0 351.333 6.66699 448 20c172 23.333 258 69.666 258 138.999c0 45.333 -32.667 115.333 -98 210l-175 234l152 263l607 148v-266l-470 -126c129.333 -169.333 194 -304 194 -404c0 -206 -83.333 -345.333 -250 -418
c-128 -56 -350 -84 -666 -84z" />
    <glyph glyph-name="u0644" unicode="&#x644;" horiz-adv-x="1595" arabic-form="isolated" 
d="M1273 -95c64.667 72 96.999 252.333 96.999 541c0 152 -32.333 393.333 -97 724l247 76c50 -274 75 -499 75 -675c0 -270 -28 -483.667 -84 -641c-50 -138.667 -142.667 -255.334 -278 -350.001c-144 -99.333 -303.667 -149 -479 -149c-184.667 0 -332.667 47 -444 141
c-107.333 90.667 -161 207.667 -161 351c0 142.667 69 283.334 207 422.001c116.667 118 273.334 226 470.001 324v-275c-109.333 -42.667 -213 -102.667 -311 -180c-118.667 -92 -178 -175 -178 -249c0 -72 45 -130 135 -174c86.667 -42.667 195 -64 325 -64
c138.667 0 248 19.333 328 58c48 23.333 97.333 63.333 148 120z" />
    <glyph glyph-name="u0645" unicode="&#x645;" horiz-adv-x="1199" arabic-form="isolated" 
d="M971 320c0 25.333 -17.667 52.667 -53 82c-32 26 -64.667 44 -98 54l-60 -157c43.333 -26 87.333 -39 132 -39c52.667 0 79 20 79 60zM834 -22.999c-42 8.66699 -87.001 31.667 -135.001 69c-41.333 32.667 -85 49 -131 49c-82.667 0 -137 -52 -163 -156
c-15.333 -57.333 -23 -157 -23 -299c0 -181.333 10.333 -323.666 31 -426.999h-239c-16 116 -24 241.667 -24 377c0 449.333 139.333 709.666 418 780.999c18 30.667 38 83 60 157c20.667 70 39.667 118 57 144c28 42 66.667 63 116 63c75.333 0 157.333 -43 246 -129
c101.333 -98.667 152 -208 152 -328c0 -18 -1.33301 -36 -4 -54c-11.333 -86 -50.666 -151.667 -117.999 -197c-54.667 -36.667 -117 -55 -187 -55c-20 0 -38.667 1.66699 -56 5z" />
    <glyph glyph-name="u0646" unicode="&#x646;" horiz-adv-x="1568" arabic-form="isolated" 
d="M1545 19c-32 -168.667 -126.667 -310.002 -284 -424.002c-152.667 -109.333 -321.667 -164 -507 -164c-184.667 0 -332.667 47 -444 141c-107.333 90.667 -161 207.667 -161 351c0 138 67.333 277 202 417c118.667 124 274 233.667 466 329v-275
c-108 -42 -210.333 -102 -307 -180c-115.333 -92 -173 -175 -173 -249c0 -72 45 -130 135 -174c86.667 -42.667 195 -64 325 -64c165.333 0 301 35.333 407 106c114.667 76.667 172 182.334 172 317.001c0 110.667 -37.667 232.334 -113 365.001l242 77
c42 -93.333 63 -206 63 -338c0 -78.667 -7.66699 -157 -23 -235zM974 712.998v259h257v-259h-257z" />
    <glyph glyph-name="u0647" unicode="&#x647;" horiz-adv-x="989" arabic-form="isolated" 
d="M989 374c0 -78.667 -34 -156 -102 -232c-85.333 -94.667 -196.333 -142 -333 -142c-116 0 -212.333 35 -289 105s-115 161 -115 273c0 100 44.333 198 133 294c42.667 47.333 140 130.333 292 249c276 -204.667 414 -387 414 -547zM722 410c0 30.667 -24.333 70 -73 118
c-38.667 38 -80.667 71.333 -126 100c-36 -29.333 -69.333 -64 -100 -104c-36 -48.667 -54 -89 -54 -121c0 -89.333 56.333 -134 169 -134c122.667 0 184 47 184 141z" />
    <glyph glyph-name="u0648" unicode="&#x648;" horiz-adv-x="893" arabic-form="isolated" 
d="M893 186c0 -208.667 -74.999 -398.333 -224.999 -569c-152.667 -172.667 -325.334 -259 -518.001 -259l38 281c115.333 0 221.333 41 318 123c91.333 78 137 158.667 137 242c-10.667 -1.33301 -22 -2 -34 -2c-77.333 0 -143.333 17.667 -198 53
c-67.333 43.333 -101 105.333 -101 186c0 102 34 195 102 279c63.333 78.667 127.333 118 192 118c74.667 0 139 -35 193 -105c64 -83.333 96 -199 96 -347zM716.001 267.001c-4.66699 37.333 -21.999 69.334 -51.999 96.001s-66 40 -108 40c-42.667 0 -64 -20.333 -64 -61
c0 -10.667 2.66699 -19.334 8 -26.001c35.333 -38.667 82.666 -58 141.999 -58c24 0 48.667 3 74 9z" />
    <glyph glyph-name="u0649" unicode="&#x649;" horiz-adv-x="1612" arabic-form="isolated" 
d="M1612 460c-22.667 3.33301 -47.002 4.99707 -73.002 4.99707c-76.667 0 -144.334 -10.667 -203.001 -32c-64.667 -23.333 -97 -53 -97 -89c0 -18.667 27 -35.667 81 -51c74.667 -20.667 125.334 -39.667 152.001 -57c54.667 -35.333 82 -86.333 82 -153
c0 -202.667 -104 -367 -312 -493c-167.333 -101.333 -336.333 -152 -507 -152c-150 0 -279.333 36.333 -388 109c-131.333 88 -197 212 -197 372c0 148.667 74.333 295.334 223 440.001c90 87.333 220.333 182.333 391 285v-287
c-99.333 -39.333 -191.333 -94.666 -276 -165.999c-99.333 -84 -149 -161 -149 -231c0 -72 45.667 -129.333 137 -172c84.667 -40 190.334 -60 317.001 -60c140 0 268.333 31.667 385 95c102.667 56.667 154 108.667 154 156c0 28.667 -31.667 53 -95 73
c-113.333 36 -172.666 55 -177.999 57c-64 30 -96 71 -96 123c0 136.667 81 257.334 243 362.001c134 87.333 269.333 137.333 406 150v-284z" />
    <glyph glyph-name="u064A" unicode="&#x64a;" horiz-adv-x="1612" arabic-form="isolated" 
d="M1612 460c-22.667 3.33301 -47.002 4.99707 -73.002 4.99707c-76.667 0 -144.334 -10.667 -203.001 -32c-64.667 -23.333 -97 -53 -97 -89c0 -18.667 27 -35.667 81 -51c74.667 -20.667 125.334 -39.667 152.001 -57c54.667 -35.333 82 -86.333 82 -153
c0 -202.667 -104 -367 -312 -493c-167.333 -101.333 -336.333 -152 -507 -152c-150 0 -279.333 36.333 -388 109c-131.333 88 -197 212 -197 372c0 148.667 74.333 295.334 223 440.001c90 87.333 220.333 182.333 391 285v-287
c-99.333 -39.333 -191.333 -94.666 -276 -165.999c-99.333 -84 -149 -161 -149 -231c0 -72 45.667 -129.333 137 -172c84.667 -40 190.334 -60 317.001 -60c140 0 268.333 31.667 385 95c102.667 56.667 154 108.667 154 156c0 28.667 -31.667 53 -95 73
c-113.333 36 -172.666 55 -177.999 57c-64 30 -96 71 -96 123c0 136.667 81 257.334 243 362.001c134 87.333 269.333 137.333 406 150v-284z" />
    <glyph glyph-name="u067E" unicode="&#x67e;" horiz-adv-x="1792" arabic-form="isolated" 
d="M1792 434c0 -134.667 -94 -242.664 -282 -323.997c-168 -73.333 -369.333 -110 -604 -110c-209.333 0 -384 30.333 -524 91c-154.667 67.333 -232 160 -232 278c0 143.333 120.333 294 361 452c100.667 65.333 221 129.666 361 192.999v-284
c-346 -102 -519 -200.333 -519 -295c0 -46.667 60.667 -84.334 182 -113.001c112 -26 247.333 -39 406 -39c174 0 320 15.667 438 47c134.667 36 202 86 202 150c0 31.333 -24 96.666 -72 195.999l229 99c36 -77.333 54 -191 54 -341zM1039 -392.997v259h257v-259h-257z
M706 -392.997v259h256v-259h-256zM872 -728.997v259h257v-259h-257z" />
    <glyph glyph-name="u0686" unicode="&#x686;" horiz-adv-x="1081" arabic-form="isolated" 
d="M868 -228v207h206v-207h-206zM601 -228v207h205v-207h-205zM734 -497v207h205v-207h-205zM395 -278c0 -108.667 53 -199.333 159 -272c112.667 -78 261.667 -117 447 -117c26.667 0 54 1 82 3v-278c-34 -2.66699 -67.667 -4 -101 -4c-244.667 0 -444.5 62.667 -599.5 188
s-232.5 285.333 -232.5 480c0 226.667 150 464 450 712c-68.667 58.667 -148.334 88 -239.001 88c-66.667 0 -134 -13.667 -202 -41v258c56 34.667 123.333 52 202 52c56.667 0 116.334 -12.667 179.001 -38c10 -4 59.333 -27.667 148 -71c82 -40 187 -60 315 -60
c26 0 48.667 1.33301 68 4v-241c-176 -48 -329.333 -131 -460 -249c-144 -130.667 -216 -268.667 -216 -414z" />
    <glyph glyph-name="u0698" unicode="&#x698;" horiz-adv-x="782" arabic-form="isolated" 
d="M722 32c0 -188.667 -53.999 -351.999 -161.999 -489.999c-102.667 -130.667 -239.334 -222 -410.001 -274v282c254 85.333 381 226.666 381 423.999c0 64 -17.667 137 -53 219c-34 78.667 -74.333 144 -121 196l229 123c22 -14.667 49.667 -75 83 -181
c35.333 -114 53 -213.667 53 -299zM592.001 1068h-256v259h256v-259zM759.001 732.001h-257v259h257v-259zM426.001 732.001h-257v259h257v-259z" />
    <glyph glyph-name="u06AF" unicode="&#x6af;" horiz-adv-x="2117" arabic-form="isolated" 
d="M2068 1371l-476 -110l-18 71l474 110zM925 0c-193.333 0 -352.667 19.002 -478 57.002c-198 59.333 -297 162 -297 308c0 120.667 92.333 249.667 277 387c146 109.333 302.667 195 470 257l1 -275c-98 -18.667 -206 -55.334 -324 -110.001
c-138 -64 -207 -120.667 -207 -170c0 -54.667 62 -98 186 -130c105.333 -26.667 229.333 -40 372 -40c202 0 351.333 6.66699 448 20c172 23.333 258 69.666 258 138.999c0 45.333 -32.667 115.333 -98 210l-175 234l152 263l607 148v-266l-470 -126
c129.333 -169.333 194 -304 194 -404c0 -206 -83.333 -345.333 -250 -418c-128 -56 -350 -84 -666 -84z" />
    <glyph glyph-name="uFB57" unicode="&#x67e;" horiz-adv-x="1858" arabic-form="final" 
d="M1811 522c-22 -52.667 -52.334 -118.332 -91.001 -196.999c0 -27.333 27.667 -41 83 -41h78v-284h-89c-112 0 -168 65.667 -168 197c-61.333 -55.333 -169 -102.166 -323 -140.499s-312.667 -57.5 -476 -57.5c-194 0 -350.333 27.667 -469 83
c-137.333 64.667 -206 160.334 -206 287.001c0 143.333 120.333 294 361 452c100.667 65.333 221 129.666 361 192.999v-284c-342 -106 -513 -214.333 -513 -325c0 -36.667 49 -67.334 147 -92.001c94.667 -23.333 208.334 -35 341.001 -35c190.667 0 350.667 24 480 72
c154 57.333 231 139.666 231 246.999zM1039 -392.998v259h257v-259h-257zM705.999 -392.998v259h256v-259h-256zM871.999 -728.998v259h257v-259h-257z" />
    <glyph glyph-name="uFB58" unicode="&#x67e;" horiz-adv-x="637" arabic-form="initial" 
d="M142 0h-161v283h189c47.333 0 79.333 3 96 9c36 14 54 44.333 54 91c0 69.333 -21.667 147.333 -65 234l243 97c17.333 -68 26 -136 26 -204c0 -147.333 -29.667 -266.333 -89 -357c-68 -102 -165.667 -153 -293 -153zM348 -393v259h257v-259h-257zM15 -393v259h256v-259
h-256zM181 -729v259h257v-259h-257z" />
    <glyph glyph-name="uFB59" unicode="&#x67e;" horiz-adv-x="805" arabic-form="medial" 
d="M559 0c-32.667 0 -58.667 9.99805 -78 29.998c-11.333 11.333 -22 29.333 -32 54c-8 20 -14.667 30 -20 30c-2 0 -22 -19 -60 -57s-75.333 -57 -112 -57h-276v283h237c88.667 0 167 98 235 294l208 -97c-1.33301 -7.33301 -15.5 -32.666 -42.5 -75.999
s-40.5 -73.666 -40.5 -90.999c0 -20 14.333 -30 43 -30h202v-283h-264zM366 -393.002v259h257v-259h-257zM32 -393.002v259h257v-259h-257zM199 -729.002v259h257v-259h-257z" />
    <glyph glyph-name="uFB7B" unicode="&#x686;" horiz-adv-x="1173" arabic-form="final" 
d="M1173 -942c-27.333 -1.33301 -54.0029 -2.00098 -80.0029 -2.00098c-277.333 0 -494.666 61.667 -651.999 185c-153.333 119.333 -230 279.666 -230 480.999c0 132 46.333 261 139 387c60.667 84 152 176 274 276c-60 51.333 -139.667 77 -239 77
c-60 0 -138.333 -19.333 -235 -58v257c26 16.667 63.333 32.667 112 48c52 16.667 93 25 123 25c50 0 106 -13 168 -39c85.333 -36 138.333 -56.667 159 -62c111.333 -29.333 234 -34 368 -14v-240c-17.333 -5.33301 -45.166 -19.166 -83.499 -41.499
s-65.166 -40.5 -80.499 -54.5h277v-283h-255c-54.667 0 -92.667 15.333 -114 46c-10.667 14.667 -19.667 43 -27 85c-6 30 -17 45 -33 45c-205.333 -135.333 -308 -286.666 -308 -453.999c0 -118.667 57.5 -213 172.5 -283s269.833 -105 464.5 -105
c26 0 52.667 0.666992 80 2v-278zM838.997 -290.001v207h206v-207h-206zM571.997 -290.001v207h205v-207h-205zM705.997 -559.001v207h205v-207h-205z" />
    <glyph glyph-name="uFB7C" unicode="&#x686;" horiz-adv-x="1032" arabic-form="initial" 
d="M622 118c-44 -33.333 -117.332 -62 -219.999 -86c-92 -21.333 -173 -32 -243 -32h-178v283h212c186 0 310 37.333 372 112c-83.333 57.333 -164 86 -242 86c-53.333 0 -121.333 -16.667 -204 -50v258c56 34.667 125 52 207 52c52 0 113 -14.667 183 -44l158 -70
c98.667 -36.667 204 -55 316 -55c19.333 0 35.666 1 48.999 3v-245c-154 -51.333 -290.667 -122 -410 -212zM512.001 -393v259h257v-259h-257zM178.001 -393v259h257v-259h-257zM345.001 -729v259h257v-259h-257z" />
    <glyph glyph-name="uFB7D" unicode="&#x686;" horiz-adv-x="1054" arabic-form="medial" 
d="M1001 615l0.00195312 -245.001c-74.667 -18.667 -132.334 -47.667 -173.001 -87h246v-283h-236c-48.667 0 -83 16 -103 48c-11.333 18 -20.333 48 -27 90c-5.33301 32 -13.333 48 -24 48c-4 0 -22.667 -13.333 -56 -40c-37.333 -29.333 -68 -49.333 -92 -60
c-43.333 -18 -105.666 -36.333 -186.999 -55c-90.667 -20.667 -163.667 -31 -219 -31h-149v283h183c183.333 0 307.333 39.333 372 118c-74 50.667 -154.667 76 -242 76c-60 0 -128 -15.333 -204 -46v258c56 34.667 125 52 207 52c53.333 0 112.333 -12.333 177 -37l150 -63
c45.333 -16.667 109.666 -27 192.999 -31c73.333 -3.33301 134.666 -1.66602 183.999 5.00098zM531.002 -393.001v259h257v-259h-257zM197.002 -393.001v259h257v-259h-257zM364.002 -729.001v259h257v-259h-257z" />
    <glyph glyph-name="uFB8B" unicode="&#x698;" horiz-adv-x="896" arabic-form="final" 
d="M926 283v-282.999h-59c-61.333 0 -106.666 10.667 -135.999 32c0 -204 -59 -374.667 -177 -512c-101.333 -116.667 -236 -200.667 -404 -252v282c259.333 87.333 389 228.666 389 423.999c0 64 -16.333 134 -49 210c-30.667 72 -69.334 134 -116.001 186l233 121
c8 -5.33301 26 -43.333 54 -114c24.667 -62.667 51 -94 79 -94h186zM650 1068h-257v259h257v-259zM817 732.001h-257v259h257v-259zM483 732.001h-257v259h257v-259z" />
    <glyph glyph-name="uFEDA" unicode="&#x6a9;" horiz-adv-x="2032" arabic-form="final" 
d="M1631 443c0 56.667 -32.668 130.001 -98.001 220.001l-175 224l152 263l607 148v-266l-470 -126c129.333 -169.333 194 -304 194 -404c0 -77.333 -10.667 -143.333 -32 -198c17.333 -14 37.333 -21 60 -21h182v-283h-173c-36 0 -62.667 14.333 -80 43
c-1.33301 2.66699 -11 29.334 -29 80.001c-10.667 28.667 -25.667 43 -45 43c-88 -72.667 -191.333 -119.667 -310 -141c-92 -16.667 -255 -25 -489 -25c-193.333 0 -352.666 19 -477.999 57c-198 59.333 -297 162 -297 308c0 120.667 92.333 249.667 277 387
c146 109.333 302.667 195 470 257l1 -275c-98 -18.667 -206 -55.334 -324 -110.001c-138 -64 -207 -120.667 -207 -170c0 -54.667 62 -98 186 -130c105.333 -26.667 229.333 -40 372 -40c202 0 351.333 6.66699 448 20c172 23.333 258 69.666 258 138.999z" />
    <glyph glyph-name="uFEDB" unicode="&#x6a9;" horiz-adv-x="836" arabic-form="initial" 
d="M351 366c0 74 -90.666 234.666 -271.999 481.999l151 264l607 148v-266l-470 -126c35.333 -46.667 72.666 -108.667 111.999 -186c54.667 -107.333 82 -192.666 82 -255.999c0 -284 -116 -426 -348 -426h-232v283h255c29.333 0 55.833 7.83301 79.5 23.5
s35.5 35.5 35.5 59.5z" />
    <glyph glyph-name="uFEDC" unicode="&#x6a9;" horiz-adv-x="800" arabic-form="medial" 
d="M590 283h229.999v-283h-222c-47.333 0 -80.833 21.167 -100.5 63.5s-37.5 63.5 -53.5 63.5c-59.333 -84.667 -158.666 -127 -297.999 -127h-165v283h255c29.333 0 55.833 7.83301 79.5 23.5s35.5 35.5 35.5 59.5c0 66.667 -32.667 149 -98 247l-174 235l151 264l607 148
v-266l-470 -126c36 -47.333 73.333 -109 112 -185c54.667 -107.333 82 -193 82 -257c0 -8 -1.33301 -22.667 -4 -44s-4 -37.333 -4 -48c0 -34 12.333 -51 37 -51z" />
    <glyph glyph-name="uFB93" unicode="&#x6af;" horiz-adv-x="2032" arabic-form="final" 
d="M2068 1371l-476 -110l-18 71l474 110zM1631 443c0 56.667 -32.668 130.001 -98.001 220.001l-175 224l152 263l607 148v-266l-470 -126c129.333 -169.333 194 -304 194 -404c0 -77.333 -10.667 -143.333 -32 -198c17.333 -14 37.333 -21 60 -21h182v-283h-173
c-36 0 -62.667 14.333 -80 43c-1.33301 2.66699 -11 29.334 -29 80.001c-10.667 28.667 -25.667 43 -45 43c-88 -72.667 -191.333 -119.667 -310 -141c-92 -16.667 -255 -25 -489 -25c-193.333 0 -352.666 19 -477.999 57c-198 59.333 -297 162 -297 308
c0 120.667 92.333 249.667 277 387c146 109.333 302.667 195 470 257l1 -275c-98 -18.667 -206 -55.334 -324 -110.001c-138 -64 -207 -120.667 -207 -170c0 -54.667 62 -98 186 -130c105.333 -26.667 229.333 -40 372 -40c202 0 351.333 6.66699 448 20
c172 23.333 258 69.666 258 138.999z" />
    <glyph glyph-name="uFB94" unicode="&#x6af;" horiz-adv-x="836" arabic-form="initial" 
d="M783 1342l-475 -110l-18 71l473 110zM351 366c0 74 -90.666 234.666 -271.999 481.999l151 264l607 148v-266l-470 -126c35.333 -46.667 72.666 -108.667 111.999 -186c54.667 -107.333 82 -192.666 82 -255.999c0 -284 -116 -426 -348 -426h-232v283h255
c29.333 0 55.833 7.83301 79.5 23.5s35.5 35.5 35.5 59.5z" />
    <glyph glyph-name="uFB95" unicode="&#x6af;" horiz-adv-x="800" arabic-form="medial" 
d="M793 1332l-476 -110l-18 71l474 110zM590 283h229.999v-283h-222c-47.333 0 -80.833 21.167 -100.5 63.5s-37.5 63.5 -53.5 63.5c-59.333 -84.667 -158.666 -127 -297.999 -127h-165v283h255c29.333 0 55.833 7.83301 79.5 23.5s35.5 35.5 35.5 59.5
c0 66.667 -32.667 149 -98 247l-174 235l151 264l607 148v-266l-470 -126c36 -47.333 73.333 -109 112 -185c54.667 -107.333 82 -193 82 -257c0 -8 -1.33301 -22.667 -4 -44s-4 -37.333 -4 -48c0 -34 12.333 -51 37 -51z" />
    <glyph glyph-name="uFE94" unicode="&#x6c0;" horiz-adv-x="858" arabic-form="final" 
d="M668 1193l-378.001 -202.001l-40 90l123 63c-26.667 46.667 -40 93.334 -40 140.001c0 70 26.667 131 80 183c48.667 48 100.334 72 155.001 72l-6 -161c-11.333 9.33301 -27 14 -47 14c-25.333 0 -47.333 -7 -66 -21c-21.333 -16 -32 -37 -32 -63
c0 -21.333 7.5 -40.5 22.5 -57.5s32.5 -25.5 52.5 -25.5c28.667 0 55.5 8.5 80.5 25.5s39.833 36.167 44.5 57.5zM882.999 -0.000976562l-180 0.000976562c-72 0 -128.333 30 -169 90c-34 50 -51 110 -51 180l-171 -130c-32 10 -65.333 41.667 -100 95
c-41.333 63.333 -62 130.666 -62 201.999c0 83.333 29.333 142.333 88 177c34.667 20 108 40.333 220 61v167l256 48v-536c0 -47.333 28 -71 84 -71h85v-283zM476.999 306l-14 213l-137 -27z" />
    <glyph glyph-name="uFEF2" unicode="&#x6cc;" horiz-adv-x="1703" arabic-form="final" 
d="M1723 0l-29.998 0.00195312c-34 0 -61.833 4.5 -83.5 13.5s-33.167 13.5 -34.5 13.5c-4 0 -8 -1 -12 -3c-18.667 -157.333 -115 -295.166 -289 -413.499s-363.667 -177.5 -569 -177.5c-163.333 0 -296.5 42.667 -399.5 128s-154.5 193.666 -154.5 324.999
c0 122 47 245.667 141 371c105.333 140 260.666 269.333 465.999 388v-289c-275.333 -148.667 -413 -276 -413 -382c0 -80.667 43.667 -143.334 131 -188.001c79.333 -40.667 179 -60 299 -58c87.333 1.33301 190.666 19.333 309.999 54c156 46 234 102 234 168
c0 25.333 -35.667 39.666 -107 42.999c-82.667 4 -136 22.333 -160 55c-29.333 38.667 -44 89 -44 151c0 56 20.333 84 61 84h654v-283z" />
    <glyph glyph-name="uFEF3" unicode="&#x6cc;" horiz-adv-x="606" arabic-form="initial" 
d="M142 0h-161v283h189c47.333 0 79.333 3 96 9c36 14 54 44.333 54 91c0 69.333 -21.667 147.333 -65 234l243 97c17.333 -68 26 -136 26 -204c0 -147.333 -29.667 -266.333 -89 -357c-68 -102 -165.667 -153 -293 -153zM349 -393v259h257v-259h-257zM15 -393v259h257v-259
h-257z" />
    <glyph glyph-name="uFEF4" unicode="&#x6cc;" horiz-adv-x="802" arabic-form="medial" 
d="M559 0c-32.667 0 -58.667 9.99805 -78 29.998c-11.333 11.333 -22 29.333 -32 54c-8 20 -14.667 30 -20 30c-2 0 -22 -19 -60 -57s-75.333 -57 -112 -57h-276v283h237c88.667 0 167 98 235 294l208 -97c-1.33301 -7.33301 -15.5 -32.666 -42.5 -75.999
s-40.5 -73.666 -40.5 -90.999c0 -20 14.333 -30 43 -30h202v-283h-264zM355 -393.002v259h257v-259h-257zM22 -393.002v259h257v-259h-257z" />
    <glyph glyph-name="Hcircumflex" unicode="&#x622;" horiz-adv-x="890" arabic-form="final" 
d="M1130 1673c-45.333 -256 -175.003 -383.999 -389.003 -383.999c-12 0 -30 1 -54 3s-42.333 3 -55 3c-80.667 0 -146 -27.667 -196 -83c-36.667 -40.667 -61.667 -91.334 -75 -152.001l-211 64c22.667 112 70.334 204.167 143.001 276.5s157 108.5 253 108.5
c14.667 0 36.334 -1.33301 65.001 -4s50.334 -4 65.001 -4c68 0 119.333 17.167 154 51.5s65 96.5 91 186.5zM908.997 0.000976562l-131 -0.00195312c-126.667 0 -215.667 45 -267 135c-40 68.667 -60 173.334 -60 314.001c0 33.333 1 73 3 119
c12 251.333 38 477.333 78 678l245 -76c-47.333 -216.667 -75.666 -409.667 -84.999 -579c-2.66699 -53.333 -4 -93.666 -4 -120.999c0 -69.333 9 -117 27 -143c19.333 -29.333 55.666 -44 108.999 -44h85v-283z" />
    <glyph glyph-name="uFE84" unicode="&#x623;" horiz-adv-x="734" arabic-form="final" 
d="M753 0l-130.001 -0.000976562c-127.333 0 -216.666 45 -267.999 135c-39.333 69.333 -59 174 -59 314c0 33.333 1 73 3 119c12 251.333 38 477.333 78 678l245 -76c-48 -216.667 -76.333 -409.667 -85 -579c-2.66699 -53.333 -4 -93.666 -4 -120.999
c0 -69.333 8.66699 -117 26 -143c20 -29.333 56.667 -44 110 -44h84v-283zM622.999 1483l-340 -181.001l-37 80l110 57c-23.333 42 -35 84 -35 126c0 62.667 24 117.334 72 164.001c44 43.333 90.667 65 140 65l-6 -145c-10 8.66699 -24.333 13 -43 13
c-58 0 -87 -25.333 -87 -76c0 -18.667 6.66699 -35.834 20 -51.501s29 -23.5 47 -23.5c26 0 50.167 7.83301 72.5 23.5s35.833 32.834 40.5 51.501z" />
    <glyph glyph-name="uFE86" unicode="&#x624;" horiz-adv-x="995" arabic-form="final" 
d="M687 895l-377 -201l-41 90l123 62c-26.667 47.333 -40 94.333 -40 141c0 70 26.667 131 80 183c48.667 47.333 100.667 71 156 71l-7 -161c-11.333 10 -27 15 -47 15c-25.333 0 -47.333 -7 -66 -21c-21.333 -16 -32 -37.333 -32 -64c0 -20.667 7.5 -39.5 22.5 -56.5
s32.5 -25.5 52.5 -25.5c28.667 0 55.5 8.5 80.5 25.5s40.167 35.833 45.5 56.5zM707 267c-5.33301 37.333 -22.332 69.001 -50.999 95.001c-30.667 27.333 -67.334 41 -110.001 41s-64 -20.333 -64 -61c0 -10.667 3 -19.334 9 -26.001c34.667 -38.667 81.667 -58 141 -58
c24 0 49 3 75 9zM879.001 283.001h147.002v-283h-164c-42.667 -176 -130.334 -326 -263.001 -450c-138 -128 -287.667 -192 -449 -192l38 281c116 0 223 41.333 321 124c93.333 78.667 140 159.667 140 243c-11.333 -1.33301 -23 -2 -35 -2c-80 0 -149 17.333 -207 52
c-71.333 42.667 -107 104.334 -107 185.001c0 102 34 195 102 279c64 78.667 128 118 192 118c65.333 0 123.666 -27.667 174.999 -83c60 -64.667 96.667 -155.334 110 -272.001z" />
    <glyph glyph-name="uFE88" unicode="&#x625;" horiz-adv-x="734" arabic-form="final" 
d="M753 0l-130.001 -0.000976562c-127.333 0 -216.666 45 -267.999 135c-39.333 69.333 -59 174 -59 314c0 33.333 1 73 3 119c12 251.333 38 477.333 78 678l245 -76c-48 -216.667 -76.333 -409.667 -85 -579c-2.66699 -53.333 -4 -93.666 -4 -120.999
c0 -69.333 8.66699 -117 26 -143c20 -29.333 56.667 -44 110 -44h84v-283zM644.999 -381.001l-340 -181.001l-37 81l111 56c-24 42 -36 84.333 -36 127c0 62.667 24 117.334 72 164.001c44 43.333 90.667 65 140 65l-6 -146c-10 8.66699 -24 13 -42 13
c-58.667 0 -88 -25 -88 -75c0 -19.333 6.66699 -36.666 20 -51.999s29 -23 47 -23c26 0 50.333 7.66699 73 23s36 32.666 40 51.999z" />
    <glyph glyph-name="uFE8A" unicode="&#x626;" horiz-adv-x="1703" arabic-form="final" 
d="M1723 0l-29.998 0.00195312c-34 0 -61.833 4.5 -83.5 13.5s-33.167 13.5 -34.5 13.5c-4 0 -8 -1 -12 -3c-18.667 -157.333 -115 -295.166 -289 -413.499s-363.667 -177.5 -569 -177.5c-163.333 0 -296.5 42.667 -399.5 128s-154.5 193.666 -154.5 324.999
c0 122 47 245.667 141 371c105.333 140 260.666 269.333 465.999 388v-289c-275.333 -148.667 -413 -276 -413 -382c0 -80.667 43.667 -143.334 131 -188.001c79.333 -40.667 179 -60 299 -58c87.333 1.33301 190.666 19.333 309.999 54c156 46 234 102 234 168
c0 25.333 -35.667 39.666 -107 42.999c-82.667 4 -136 22.333 -160 55c-29.333 38.667 -44 89 -44 151c0 56 20.333 84 61 84h654v-283zM872.002 853.002l-340 -181l-36 81l110 56c-24 42 -36 84 -36 126c0 63.333 24 118.333 72 165c44 43.333 90.667 65 140 65l-6 -146
c-10 8.66699 -24 13 -42 13c-58.667 0 -88 -25 -88 -75c0 -19.333 6.66699 -36.666 20 -51.999s29 -23 47 -23c26 0 50.333 7.66699 73 23s36 32.666 40 51.999z" />
    <glyph glyph-name="uFE8B" unicode="&#x626;" horiz-adv-x="529" arabic-form="initial" 
d="M467 982l-377.998 -202l-40 90l123 63c-26.667 46.667 -40 93.667 -40 141c0 69.333 26.333 130 79 182c49.333 48 101.333 72 156 72l-7 -161c-10.667 9.33301 -26.334 14 -47.001 14c-24.667 0 -46.334 -7 -65.001 -21c-21.333 -15.333 -32 -36.333 -32 -63
c0 -21.333 7.5 -40.5 22.5 -57.5s32.167 -25.5 51.5 -25.5c28.667 0 55.667 8.5 81 25.5s40.333 36.167 45 57.5zM142.002 0h-161v283h189c47.333 0 79.333 3 96 9c36 14 54 44.333 54 91c0 69.333 -21.667 147.333 -65 234l243 97c17.333 -68 26 -136 26 -204
c0 -147.333 -29.667 -266.333 -89 -357c-68 -102 -165.667 -153 -293 -153z" />
    <glyph glyph-name="uFE8C" unicode="&#x626;" horiz-adv-x="802" arabic-form="medial" 
d="M611 982l-377.999 -202l-40 90l122 63c-26.667 46.667 -40 93.667 -40 141c0 69.333 26.667 130 80 182c49.333 48 101.333 72 156 72l-7 -161c-11.333 9.33301 -27 14 -47 14c-25.333 0 -47 -7 -65 -21c-22 -15.333 -33 -36.333 -33 -63
c0 -21.333 7.66699 -40.5 23 -57.5s32.666 -25.5 51.999 -25.5c28.667 0 55.5 8.5 80.5 25.5s40.167 36.167 45.5 57.5zM559.001 0c-32.667 0 -58.667 9.99805 -78 29.998c-11.333 11.333 -22 29.333 -32 54c-8 20 -14.667 30 -20 30c-2 0 -22 -19 -60 -57
s-75.333 -57 -112 -57h-276v283h237c88.667 0 167 98 235 294l208 -97c-1.33301 -7.33301 -15.5 -32.666 -42.5 -75.999s-40.5 -73.666 -40.5 -90.999c0 -20 14.333 -30 43 -30h202v-283h-264z" />
    <glyph glyph-name="uFE8E" unicode="&#x627;" horiz-adv-x="579" arabic-form="final" 
d="M608 283v-283.002h-131c-126.667 0 -216 45 -268 135c-39.333 68.667 -59 173.334 -59 314.001c0 33.333 1 73 3 119c12 251.333 38 477.333 78 678l245 -76c-47.333 -216.667 -75.666 -409.667 -84.999 -579c-2.66699 -53.333 -4 -93.666 -4 -120.999
c0 -69.333 9 -117 27 -143c19.333 -29.333 55.666 -44 108.999 -44h85z" />
    <glyph glyph-name="uFE90" unicode="&#x628;" horiz-adv-x="1852" arabic-form="final" 
d="M1811 522c-22 -52.667 -52.334 -118.332 -91.001 -196.999c0 -27.333 27.667 -41 83 -41h78v-284h-89c-112 0 -168 65.667 -168 197c-61.333 -55.333 -169 -102.166 -323 -140.499s-312.667 -57.5 -476 -57.5c-194 0 -350.333 27.667 -469 83
c-137.333 64.667 -206 160.334 -206 287.001c0 143.333 120.333 294 361 452c100.667 65.333 221 129.666 361 192.999v-284c-342 -106 -513 -214.333 -513 -325c0 -36.667 49 -67.334 147 -92.001c94.667 -23.333 208.334 -35 341.001 -35c190.667 0 350.667 24 480 72
c154 57.333 231 139.666 231 246.999zM820.999 -392.998v259h257v-259h-257z" />
    <glyph glyph-name="uFE91" unicode="&#x628;" horiz-adv-x="526" arabic-form="initial" 
d="M142 0h-161v283h189c47.333 0 79.333 3 96 9c36 14 54 44.333 54 91c0 69.333 -21.667 147.333 -65 234l243 97c17.333 -68 26 -136 26 -204c0 -147.333 -29.667 -266.333 -89 -357c-68 -102 -165.667 -153 -293 -153zM70 -393v259h256v-259h-256z" />
    <glyph glyph-name="uFE92" unicode="&#x628;" horiz-adv-x="802" arabic-form="medial" 
d="M559 0c-32.667 0 -58.667 9.99805 -78 29.998c-11.333 11.333 -22 29.333 -32 54c-8 20 -14.667 30 -20 30c-2 0 -22 -19 -60 -57s-75.333 -57 -112 -57h-276v283h237c88.667 0 167 98 235 294l208 -97c-1.33301 -7.33301 -15.5 -32.666 -42.5 -75.999
s-40.5 -73.666 -40.5 -90.999c0 -20 14.333 -30 43 -30h202v-283h-264zM76 -393.002v259h257v-259h-257z" />
    <glyph glyph-name="uFE96" unicode="&#x62a;" horiz-adv-x="1852" arabic-form="final" 
d="M1811 522c-22 -52.667 -52.334 -118.332 -91.001 -196.999c0 -27.333 27.667 -41 83 -41h78v-284h-89c-112 0 -168 65.667 -168 197c-61.333 -55.333 -169 -102.166 -323 -140.499s-312.667 -57.5 -476 -57.5c-194 0 -350.333 27.667 -469 83
c-137.333 64.667 -206 160.334 -206 287.001c0 143.333 120.333 294 361 452c100.667 65.333 221 129.666 361 192.999v-284c-342 -106 -513 -214.333 -513 -325c0 -36.667 49 -67.334 147 -92.001c94.667 -23.333 208.334 -35 341.001 -35c190.667 0 350.667 24 480 72
c154 57.333 231 139.666 231 246.999zM1298 762.002v259h257v-259h-257zM963.999 762.002v259h257v-259h-257z" />
    <glyph glyph-name="uFE97" unicode="&#x62a;" horiz-adv-x="660" arabic-form="initial" 
d="M142 0h-161v283h189c47.333 0 79.333 3 96 9c36 14 54 44.333 54 91c0 69.333 -21.667 147.333 -65 234l243 97c17.333 -68 26 -136 26 -204c0 -147.333 -29.667 -266.333 -89 -357c-68 -102 -165.667 -153 -293 -153zM382 748v259h257v-259h-257zM49 748v259h257v-259
h-257z" />
    <glyph glyph-name="uFE98" unicode="&#x62a;" horiz-adv-x="802" arabic-form="medial" 
d="M559 0c-32.667 0 -58.667 9.99805 -78 29.998c-11.333 11.333 -22 29.333 -32 54c-8 20 -14.667 30 -20 30c-2 0 -22 -19 -60 -57s-75.333 -57 -112 -57h-276v283h237c88.667 0 167 98 235 294l208 -97c-1.33301 -7.33301 -15.5 -32.666 -42.5 -75.999
s-40.5 -73.666 -40.5 -90.999c0 -20 14.333 -30 43 -30h202v-283h-264zM411 747.998v259h257v-259h-257zM78 747.998v259h257v-259h-257z" />
    <glyph glyph-name="uFE9A" unicode="&#x62b;" horiz-adv-x="1846" arabic-form="final" 
d="M1811 522c-22 -52.667 -52.334 -118.332 -91.001 -196.999c0 -27.333 27.667 -41 83 -41h78v-284h-89c-112 0 -168 65.667 -168 197c-61.333 -55.333 -169 -102.166 -323 -140.499s-312.667 -57.5 -476 -57.5c-194 0 -350.333 27.667 -469 83
c-137.333 64.667 -206 160.334 -206 287.001c0 143.333 120.333 294 361 452c100.667 65.333 221 129.666 361 192.999v-284c-342 -106 -513 -214.333 -513 -325c0 -36.667 49 -67.334 147 -92.001c94.667 -23.333 208.334 -35 341.001 -35c190.667 0 350.667 24 480 72
c154 57.333 231 139.666 231 246.999zM1379 1097h-257v259h257v-259zM1545 761.002h-257v259h257v-259zM1212 761.002h-257v259h257v-259z" />
    <glyph glyph-name="uFE9B" unicode="&#x62b;" horiz-adv-x="637" arabic-form="initial" 
d="M142 0h-161v283h189c47.333 0 79.333 3 96 9c36 14 54 44.333 54 91c0 69.333 -21.667 147.333 -65 234l243 97c17.333 -68 26 -136 26 -204c0 -147.333 -29.667 -266.333 -89 -357c-68 -102 -165.667 -153 -293 -153zM458 1082h-257v259h257v-259zM625 747h-257v259h257
v-259zM291 747h-256v259h256v-259z" />
    <glyph glyph-name="uFE9C" unicode="&#x62b;" horiz-adv-x="802" arabic-form="medial" 
d="M559 0c-32.667 0 -58.667 9.99805 -78 29.998c-11.333 11.333 -22 29.333 -32 54c-8 20 -14.667 30 -20 30c-2 0 -22 -19 -60 -57s-75.333 -57 -112 -57h-276v283h237c88.667 0 167 98 235 294l208 -97c-1.33301 -7.33301 -15.5 -32.666 -42.5 -75.999
s-40.5 -73.666 -40.5 -90.999c0 -20 14.333 -30 43 -30h202v-283h-264zM511 1082h-257v259h257v-259zM678 746.998h-257v259h257v-259zM344 746.998h-257v259h257v-259z" />
    <glyph glyph-name="uFE9E" unicode="&#x62c;" horiz-adv-x="1168" arabic-form="final" 
d="M1173 -942c-27.333 -1.33301 -54.0029 -2.00098 -80.0029 -2.00098c-277.333 0 -494.666 61.667 -651.999 185c-153.333 119.333 -230 279.666 -230 480.999c0 132 46.333 261 139 387c60.667 84 152 176 274 276c-60 51.333 -139.667 77 -239 77
c-60 0 -138.333 -19.333 -235 -58v257c26 16.667 63.333 32.667 112 48c52 16.667 93 25 123 25c50 0 106 -13 168 -39c85.333 -36 138.333 -56.667 159 -62c111.333 -29.333 234 -34 368 -14v-240c-17.333 -5.33301 -45.166 -19.166 -83.499 -41.499
s-65.166 -40.5 -80.499 -54.5h277v-283h-255c-54.667 0 -92.667 15.333 -114 46c-10.667 14.667 -19.667 43 -27 85c-6 30 -17 45 -33 45c-205.333 -135.333 -308 -286.666 -308 -453.999c0 -118.667 57.5 -213 172.5 -283s269.833 -105 464.5 -105
c26 0 52.667 0.666992 80 2v-278zM845.997 -431.001v258h256v-258h-256z" />
    <glyph glyph-name="uFE9F" unicode="&#x62c;" horiz-adv-x="1032" arabic-form="initial" 
d="M622 118c-44 -33.333 -117.332 -62 -219.999 -86c-92 -21.333 -173 -32 -243 -32h-178v283h212c186 0 310 37.333 372 112c-83.333 57.333 -164 86 -242 86c-53.333 0 -121.333 -16.667 -204 -50v258c56 34.667 125 52 207 52c52 0 113 -14.667 183 -44l158 -70
c98.667 -36.667 204 -55 316 -55c19.333 0 35.666 1 48.999 3v-245c-154 -51.333 -290.667 -122 -410 -212zM421.001 -393v259h257v-259h-257z" />
    <glyph glyph-name="uFEA0" unicode="&#x62c;" horiz-adv-x="1054" arabic-form="medial" 
d="M1001 615l0.00195312 -245.001c-74.667 -18.667 -132.334 -47.667 -173.001 -87h246v-283h-236c-48.667 0 -83 16 -103 48c-11.333 18 -20.333 48 -27 90c-5.33301 32 -13.333 48 -24 48c-4 0 -22.667 -13.333 -56 -40c-37.333 -29.333 -68 -49.333 -92 -60
c-43.333 -18 -105.666 -36.333 -186.999 -55c-90.667 -20.667 -163.667 -31 -219 -31h-149v283h183c183.333 0 307.333 39.333 372 118c-74 50.667 -154.667 76 -242 76c-60 0 -128 -15.333 -204 -46v258c56 34.667 125 52 207 52c53.333 0 112.333 -12.333 177 -37l150 -63
c45.333 -16.667 109.666 -27 192.999 -31c73.333 -3.33301 134.666 -1.66602 183.999 5.00098zM421.002 -393.001v259h257v-259h-257z" />
    <glyph glyph-name="uFEA2" unicode="&#x62d;" horiz-adv-x="1173" arabic-form="final" 
d="M1173 -942c-27.333 -1.33301 -54.0029 -2.00098 -80.0029 -2.00098c-277.333 0 -494.666 61.667 -651.999 185c-153.333 119.333 -230 279.666 -230 480.999c0 132 46.333 261 139 387c60.667 84 152 176 274 276c-60 51.333 -139.667 77 -239 77
c-60 0 -138.333 -19.333 -235 -58v257c26 16.667 63.333 32.667 112 48c52 16.667 93 25 123 25c50 0 106 -13 168 -39c85.333 -36 138.333 -56.667 159 -62c111.333 -29.333 234 -34 368 -14v-240c-17.333 -5.33301 -45.166 -19.166 -83.499 -41.499
s-65.166 -40.5 -80.499 -54.5h277v-283h-255c-54.667 0 -92.667 15.333 -114 46c-10.667 14.667 -19.667 43 -27 85c-6 30 -17 45 -33 45c-205.333 -135.333 -308 -286.666 -308 -453.999c0 -118.667 57.5 -213 172.5 -283s269.833 -105 464.5 -105
c26 0 52.667 0.666992 80 2v-278z" />
    <glyph glyph-name="uFEA3" unicode="&#x62d;" horiz-adv-x="1032" arabic-form="initial" 
d="M622 118c-44 -33.333 -117.332 -62 -219.999 -86c-92 -21.333 -173 -32 -243 -32h-178v283h212c186 0 310 37.333 372 112c-83.333 57.333 -164 86 -242 86c-53.333 0 -121.333 -16.667 -204 -50v258c56 34.667 125 52 207 52c52 0 113 -14.667 183 -44l158 -70
c98.667 -36.667 204 -55 316 -55c19.333 0 35.666 1 48.999 3v-245c-154 -51.333 -290.667 -122 -410 -212z" />
    <glyph glyph-name="uFEA4" unicode="&#x62d;" horiz-adv-x="1054" arabic-form="medial" 
d="M1001 615l0.00195312 -245.001c-74.667 -18.667 -132.334 -47.667 -173.001 -87h246v-283h-236c-48.667 0 -83 16 -103 48c-11.333 18 -20.333 48 -27 90c-5.33301 32 -13.333 48 -24 48c-4 0 -22.667 -13.333 -56 -40c-37.333 -29.333 -68 -49.333 -92 -60
c-43.333 -18 -105.666 -36.333 -186.999 -55c-90.667 -20.667 -163.667 -31 -219 -31h-149v283h183c183.333 0 307.333 39.333 372 118c-74 50.667 -154.667 76 -242 76c-60 0 -128 -15.333 -204 -46v258c56 34.667 125 52 207 52c53.333 0 112.333 -12.333 177 -37l150 -63
c45.333 -16.667 109.666 -27 192.999 -31c73.333 -3.33301 134.666 -1.66602 183.999 5.00098z" />
    <glyph glyph-name="uFEA6" unicode="&#x62e;" horiz-adv-x="1173" arabic-form="final" 
d="M1173 -942c-27.333 -1.33301 -54.0029 -2.00098 -80.0029 -2.00098c-277.333 0 -494.666 61.667 -651.999 185c-153.333 119.333 -230 279.666 -230 480.999c0 132 46.333 261 139 387c60.667 84 152 176 274 276c-60 51.333 -139.667 77 -239 77
c-60 0 -138.333 -19.333 -235 -58v257c26 16.667 63.333 32.667 112 48c52 16.667 93 25 123 25c50 0 106 -13 168 -39c85.333 -36 138.333 -56.667 159 -62c111.333 -29.333 234 -34 368 -14v-240c-17.333 -5.33301 -45.166 -19.166 -83.499 -41.499
s-65.166 -40.5 -80.499 -54.5h277v-283h-255c-54.667 0 -92.667 15.333 -114 46c-10.667 14.667 -19.667 43 -27 85c-6 30 -17 45 -33 45c-205.333 -135.333 -308 -286.666 -308 -453.999c0 -118.667 57.5 -213 172.5 -283s269.833 -105 464.5 -105
c26 0 52.667 0.666992 80 2v-278zM446.997 986.999v259h257v-259h-257z" />
    <glyph glyph-name="uFEA7" unicode="&#x62e;" horiz-adv-x="1032" arabic-form="initial" 
d="M622 118c-44 -33.333 -117.332 -62 -219.999 -86c-92 -21.333 -173 -32 -243 -32h-178v283h212c186 0 310 37.333 372 112c-83.333 57.333 -164 86 -242 86c-53.333 0 -121.333 -16.667 -204 -50v258c56 34.667 125 52 207 52c52 0 113 -14.667 183 -44l158 -70
c98.667 -36.667 204 -55 316 -55c19.333 0 35.666 1 48.999 3v-245c-154 -51.333 -290.667 -122 -410 -212zM370.001 987v259h257v-259h-257z" />
    <glyph glyph-name="uFEA8" unicode="&#x62e;" horiz-adv-x="1054" arabic-form="medial" 
d="M1001 615l0.00195312 -245.001c-74.667 -18.667 -132.334 -47.667 -173.001 -87h246v-283h-236c-48.667 0 -83 16 -103 48c-11.333 18 -20.333 48 -27 90c-5.33301 32 -13.333 48 -24 48c-4 0 -22.667 -13.333 -56 -40c-37.333 -29.333 -68 -49.333 -92 -60
c-43.333 -18 -105.666 -36.333 -186.999 -55c-90.667 -20.667 -163.667 -31 -219 -31h-149v283h183c183.333 0 307.333 39.333 372 118c-74 50.667 -154.667 76 -242 76c-60 0 -128 -15.333 -204 -46v258c56 34.667 125 52 207 52c53.333 0 112.333 -12.333 177 -37l150 -63
c45.333 -16.667 109.666 -27 192.999 -31c73.333 -3.33301 134.666 -1.66602 183.999 5.00098zM370.002 986.999v259h257v-259h-257z" />
    <glyph glyph-name="uFEAA" unicode="&#x62f;" horiz-adv-x="1122" arabic-form="final" 
d="M1159 0h-195c-44 0 -76 20.167 -96 60.5s-33 60.5 -39 60.5c-3.33301 0 -22 -10.667 -56 -32c-40.667 -24.667 -88.667 -44 -144 -58c-82 -20.667 -183.667 -31 -305 -31c-84 -0 -142 3.33301 -174 10v273h483c59.333 0 89 15 89 45c0 4.66699 -0.666992 9.66699 -2 15
c-58 198.667 -151.333 399.667 -280 603l229 128c124 -230 218 -476.667 282 -740c8 -34 39.333 -51 94 -51h114v-283z" />
    <glyph glyph-name="uFEAC" unicode="&#x630;" horiz-adv-x="1109" arabic-form="final" 
d="M1149 0h-185c-44 0 -76 20.167 -96 60.5s-33 60.5 -39 60.5c-3.33301 0 -22 -10.667 -56 -32c-40.667 -24.667 -88.667 -44 -144 -58c-82 -20.667 -183.667 -31 -305 -31c-84 -0 -142 3.33301 -174 10v273h483c59.333 0 89 15 89 45c0 4.66699 -0.666992 9.66699 -2 15
c-58 198.667 -151.333 399.667 -280 603l229 128c124 -230 218 -476.667 282 -740c8 -34 39.333 -51 94 -51h104v-283zM360 1189v259h257v-259h-257z" />
    <glyph glyph-name="uFEAE" unicode="&#x631;" horiz-adv-x="907" arabic-form="final" 
d="M926 283v-282.999h-59c-61.333 0 -106.666 10.667 -135.999 32c0 -204 -59 -374.667 -177 -512c-101.333 -116.667 -236 -200.667 -404 -252v282c259.333 87.333 389 228.666 389 423.999c0 64 -16.333 134 -49 210c-30.667 72 -69.334 134 -116.001 186l233 121
c8 -5.33301 26 -43.333 54 -114c24.667 -62.667 51 -94 79 -94h186z" />
    <glyph glyph-name="uFEB0" unicode="&#x632;" horiz-adv-x="906" arabic-form="final" 
d="M926 283v-282.999h-59c-61.333 0 -106.666 10.667 -135.999 32c0 -204 -59 -374.667 -177 -512c-101.333 -116.667 -236 -200.667 -404 -252v282c259.333 87.333 389 228.666 389 423.999c0 64 -16.333 134 -49 210c-30.667 72 -69.334 134 -116.001 186l233 121
c8 -5.33301 26 -43.333 54 -114c24.667 -62.667 51 -94 79 -94h186zM303 748.001v259h257v-259h-257z" />
    <glyph glyph-name="uFEB2" unicode="&#x633;" horiz-adv-x="2531" arabic-form="final" 
d="M2421 0c-51.333 0 -92.668 16.666 -124.001 49.999c-7.33301 8 -22.333 32.333 -45 73c-55.333 -82 -119.333 -123 -192 -123c-45.333 0 -89.333 15.333 -132 46c-32.667 23.333 -57 49 -73 77c-58.667 -82 -115 -123 -169 -123h-71c-28.667 0 -52 6.33301 -70 19
c-32 -168.667 -126.667 -310 -284 -424c-152.667 -109.333 -321.667 -164 -507 -164c-184.667 0 -332.667 47 -444 141c-107.333 90.667 -161 207.667 -161 351c0 142.667 69 283.334 207 422.001c116.667 118 273.334 226 470.001 324v-275
c-109.333 -42.667 -213 -102.667 -311 -180c-118.667 -92 -178 -175 -178 -249c0 -72 45 -130 135 -174c86.667 -42.667 195 -64 325 -64c165.333 0 301 35.333 407 106c114.667 76.667 172 182.334 172 317.001c0 116 -34.667 234.333 -104 355l243 78
c22.667 -51.333 41.334 -122.666 56.001 -213.999c9.33301 -57.333 25.666 -86 48.999 -86h50c35.333 0 79.333 41.667 132 125c46 74 73 132.333 81 175l201 -74c-0.666992 -2.66699 -32.334 -64.334 -95 -185.001c-2 -3.33301 -3 -7 -3 -11c0 -20 14 -30 42 -30h45
c35.333 0 79 41.667 131 125c46 74 73 132.333 81 175l202 -74c-0.666992 -2.66699 -32.334 -64.334 -95 -185.001c-2 -3.33301 -3 -7 -3 -11c0 -20 14 -30 42 -30h119v-283h-129z" />
    <glyph glyph-name="uFEB3" unicode="&#x633;" horiz-adv-x="1286" arabic-form="initial" 
d="M477 0c-44.667 0 -88.999 15.335 -132.999 46.002c-34 24 -59 49.667 -75 77c-58 -82 -114 -123 -168 -123h-120v283h104c36 0 80 41.667 132 125c46 74 73 132.333 81 175l201 -74c-0.666992 -2.66699 -32 -64.334 -94 -185.001c-2 -3.33301 -3 -7 -3 -11
c0 -20 14 -30 42 -30h54c36 0 80 41.667 132 125c46 74 73 132.333 81 175l202 -74c-0.666992 -2.66699 -32.334 -64.334 -95.001 -185.001c-2 -3.33301 -3 -7 -3 -11c0 -20 14 -30 42 -30h129c62 0 93 31 93 93c0 85.333 -15.667 164.333 -47 237l254 72
c4.66699 -34 7 -80.667 7 -140c0 -150 -32.333 -274.667 -97 -374c-73.333 -114 -176.333 -171 -309 -171c-88 0 -155.667 41 -203 123c-19.333 -27.333 -46.333 -53 -81 -77c-44.667 -30.667 -86.667 -46 -126 -46z" />
    <glyph glyph-name="uFEB4" unicode="&#x633;" horiz-adv-x="1369" arabic-form="medial" 
d="M-19 283l104.002 0.00292969c36 0 80 41.667 132 125c46 74 73 132.333 81 175l201 -74c-0.666992 -2.66699 -32 -64.334 -94 -185.001c-2 -3.33301 -3 -7 -3 -11c0 -20 14 -30 42 -30h54c36 0 80 41.667 132 125c46 74 73 132.333 81 175l202 -74
c-0.666992 -2.66699 -32.334 -64.334 -95.001 -185.001c-2 -3.33301 -3 -7 -3 -11c0 -20 14 -30 42 -30h44c35.333 0 79.333 41.667 132 125c46 74 73 132.333 81 175l201 -74c-0.666992 -2.66699 -32.334 -64.334 -95.001 -185.001c-1.33301 -3.33301 -2 -7 -2 -11
c0 -20 14 -30 42 -30h128v-283h-139c-51.333 0 -92.333 16.667 -123 50c-8 8 -23.333 32.333 -46 73c-55.333 -82 -119 -123 -191 -123c-45.333 -0 -89.333 15.333 -132 46c-32.667 23.333 -57 49 -73 77c-55.333 -82 -124.333 -123 -207 -123
c-44.667 -0 -89 15.333 -133 46c-34 24 -59 49.667 -75 77c-58 -82 -114 -123 -168 -123h-120v283z" />
    <glyph glyph-name="uFEB6" unicode="&#x634;" horiz-adv-x="2531" arabic-form="final" 
d="M2421 0c-51.333 0 -92.668 16.666 -124.001 49.999c-7.33301 8 -22.333 32.333 -45 73c-55.333 -82 -119.333 -123 -192 -123c-45.333 0 -89.333 15.333 -132 46c-32.667 23.333 -57 49 -73 77c-58.667 -82 -115 -123 -169 -123h-71c-28.667 0 -52 6.33301 -70 19
c-32 -168.667 -126.667 -310 -284 -424c-152.667 -109.333 -321.667 -164 -507 -164c-184.667 0 -332.667 47 -444 141c-107.333 90.667 -161 207.667 -161 351c0 142.667 69 283.334 207 422.001c116.667 118 273.334 226 470.001 324v-275
c-109.333 -42.667 -213 -102.667 -311 -180c-118.667 -92 -178 -175 -178 -249c0 -72 45 -130 135 -174c86.667 -42.667 195 -64 325 -64c165.333 0 301 35.333 407 106c114.667 76.667 172 182.334 172 317.001c0 116 -34.667 234.333 -104 355l243 78
c22.667 -51.333 41.334 -122.666 56.001 -213.999c9.33301 -57.333 25.666 -86 48.999 -86h50c35.333 0 79.333 41.667 132 125c46 74 73 132.333 81 175l201 -74c-0.666992 -2.66699 -32.334 -64.334 -95 -185.001c-2 -3.33301 -3 -7 -3 -11c0 -20 14 -30 42 -30h45
c35.333 0 79 41.667 131 125c46 74 73 132.333 81 175l202 -74c-0.666992 -2.66699 -32.334 -64.334 -95 -185.001c-2 -3.33301 -3 -7 -3 -11c0 -20 14 -30 42 -30h119v-283h-129zM2030 1068h-257v259h257v-259zM2197 731.999h-257v259h257v-259zM1864 731.999h-257v259h257
v-259z" />
    <glyph glyph-name="uFEB7" unicode="&#x634;" horiz-adv-x="1288" arabic-form="initial" 
d="M477 0c-44.667 0 -88.999 15.335 -132.999 46.002c-34 24 -59 49.667 -75 77c-58 -82 -114 -123 -168 -123h-120v283h104c36 0 80 41.667 132 125c46 74 73 132.333 81 175l201 -74c-0.666992 -2.66699 -32 -64.334 -94 -185.001c-2 -3.33301 -3 -7 -3 -11
c0 -20 14 -30 42 -30h54c36 0 80 41.667 132 125c46 74 73 132.333 81 175l202 -74c-0.666992 -2.66699 -32.334 -64.334 -95.001 -185.001c-2 -3.33301 -3 -7 -3 -11c0 -20 14 -30 42 -30h129c62 0 93 31 93 93c0 85.333 -15.667 164.333 -47 237l254 72
c4.66699 -34 7 -80.667 7 -140c0 -150 -32.333 -274.667 -97 -374c-73.333 -114 -176.333 -171 -309 -171c-88 0 -155.667 41 -203 123c-19.333 -27.333 -46.333 -53 -81 -77c-44.667 -30.667 -86.667 -46 -126 -46zM870.001 1068h-256v259h256v-259zM1037 732.002h-257v259
h257v-259zM704.001 732.002h-257v259h257v-259z" />
    <glyph glyph-name="uFEB8" unicode="&#x634;" horiz-adv-x="1369" arabic-form="medial" 
d="M-19 283l104.002 0.00292969c36 0 80 41.667 132 125c46 74 73 132.333 81 175l201 -74c-0.666992 -2.66699 -32 -64.334 -94 -185.001c-2 -3.33301 -3 -7 -3 -11c0 -20 14 -30 42 -30h54c36 0 80 41.667 132 125c46 74 73 132.333 81 175l202 -74
c-0.666992 -2.66699 -32.334 -64.334 -95.001 -185.001c-2 -3.33301 -3 -7 -3 -11c0 -20 14 -30 42 -30h44c35.333 0 79.333 41.667 132 125c46 74 73 132.333 81 175l201 -74c-0.666992 -2.66699 -32.334 -64.334 -95.001 -185.001c-1.33301 -3.33301 -2 -7 -2 -11
c0 -20 14 -30 42 -30h128v-283h-139c-51.333 0 -92.333 16.667 -123 50c-8 8 -23.333 32.333 -46 73c-55.333 -82 -119 -123 -191 -123c-45.333 -0 -89.333 15.333 -132 46c-32.667 23.333 -57 49 -73 77c-55.333 -82 -124.333 -123 -207 -123
c-44.667 -0 -89 15.333 -133 46c-34 24 -59 49.667 -75 77c-58 -82 -114 -123 -168 -123h-120v283zM947.002 1068h-257v259h257v-259zM1114 732.003h-257v259h257v-259zM780.002 732.003h-257v259h257v-259z" />
    <glyph glyph-name="uFEBA" unicode="&#x635;" horiz-adv-x="2429" arabic-form="final" 
d="M2351 317c5.33301 -22.667 18.333 -34.0039 39 -34.0039h58v-283h-104c-40 0 -72.333 21.833 -97 65.5s-42.334 65.5 -53.001 65.5c-4 0 -24.667 -11.333 -62 -34c-44 -26.667 -89.667 -47.667 -137 -63c-72 -22.667 -152.333 -34 -241 -34h-139
c-28 0 -51.333 6.66699 -70 20c-32 -169.333 -126.667 -310.666 -284 -423.999c-152.667 -110 -321.667 -165 -507 -165c-184.667 0 -332.667 47 -444 141c-107.333 90.667 -161 207.667 -161 351c0 142.667 69 283.334 207 422.001c116.667 118 273.334 226 470.001 324
v-275c-109.333 -42.667 -213 -102.667 -311 -180c-118.667 -92 -178 -175 -178 -249c0 -72 45 -130 135 -174c86.667 -42.667 195 -64 325 -64c165.333 0 301 35.333 407 106c114.667 76.667 172 182.334 172 317.001c0 116 -34.667 234.333 -104 355l243 78
c22.667 -51.333 41.334 -122.666 56.001 -213.999c9.33301 -57.333 25.666 -86 48.999 -86h77c103.333 0 201.333 11 294 33c111.333 26.667 177.666 63 199 109c8.66699 16.667 13 31 13 43c0 30.667 -26.333 46 -79 46c-62.667 0 -127.667 -17.333 -195 -52
c-76.667 -40 -138.334 -94 -185.001 -162v253c44 58 100.833 104.5 170.5 139.5s140.167 52.5 211.501 52.5c86 0 152.667 -25.667 200 -77c44 -46.667 66 -108 66 -184c0 -59.333 -13.667 -115 -41 -167z" />
    <glyph glyph-name="uFEBB" unicode="&#x635;" horiz-adv-x="1251" arabic-form="initial" 
d="M415 0c-32.667 0 -58.667 9.99805 -78 29.998c-11.333 11.333 -22 29.333 -32 54c-8 20 -14.333 30 -19 30c-2.66699 0 -23 -19 -61 -57s-75.333 -57 -112 -57h-132v283h93c88.667 0 167.334 98 236.001 294l208 -97c-1.33301 -7.33301 -15.5 -32.666 -42.5 -75.999
s-40.5 -73.666 -40.5 -90.999c0 -20 14 -30 42 -30h79c103.333 0 201.666 11 294.999 33c110.667 26.667 177 63 199 109c8 16.667 12 31 12 43c0 30.667 -26 46 -78 46c-63.333 0 -128.666 -17.333 -195.999 -52c-76.667 -40 -138.334 -94 -185.001 -162v253
c44 58 100.833 104.5 170.5 139.5s140.167 52.5 211.5 52.5c86 0 152.667 -25.667 200 -77c44 -46.667 66 -108 66 -184c0 -136 -68.333 -252 -205 -348c-128.667 -90.667 -272.667 -136 -432 -136h-199z" />
    <glyph glyph-name="uFEBC" unicode="&#x635;" horiz-adv-x="1288" arabic-form="medial" 
d="M406 0c-33.333 0 -59.665 9.99805 -78.998 29.998c-11.333 11.333 -22 29.333 -32 54c-7.33301 20 -13.666 30 -18.999 30c-2 0 -22 -19 -60 -57s-75.333 -57 -112 -57h-123v283h83c89.333 0 168 98 236 294l208 -97c-1.33301 -7.33301 -15.5 -32.666 -42.5 -75.999
s-40.5 -73.666 -40.5 -90.999c0 -20 14.333 -30 43 -30h78c104 0 202.333 11 295 33c110.667 26.667 177 63 199 109c8 16.667 12 31 12 43c0 30.667 -26 46 -78 46c-62.667 0 -128 -17.333 -196 -52c-76.667 -40 -138.334 -94 -185.001 -162v253c44 58 101 104.5 171 139.5
s140.667 52.5 212 52.5c86 0 152.667 -25.667 200 -77c43.333 -46.667 65 -108 65 -184c0 -59.333 -13.667 -115 -41 -167c5.33301 -22.667 18.666 -34 39.999 -34h68v-283h-115c-40 -0 -72.167 21.833 -96.5 65.5s-41.833 65.5 -52.5 65.5
c-4.66699 0 -25.334 -11.333 -62.001 -34c-44.667 -26.667 -90.667 -47.667 -138 -63c-71.333 -22.667 -151.333 -34 -240 -34h-198z" />
    <glyph glyph-name="uFEBE" unicode="&#x636;" horiz-adv-x="2429" arabic-form="final" 
d="M2351 317c5.33301 -22.667 18.333 -34.0039 39 -34.0039h58v-283h-104c-40 0 -72.333 21.833 -97 65.5s-42.334 65.5 -53.001 65.5c-4 0 -24.667 -11.333 -62 -34c-44 -26.667 -89.667 -47.667 -137 -63c-72 -22.667 -152.333 -34 -241 -34h-139
c-28 0 -51.333 6.66699 -70 20c-32 -169.333 -126.667 -310.666 -284 -423.999c-152.667 -110 -321.667 -165 -507 -165c-184.667 0 -332.667 47 -444 141c-107.333 90.667 -161 207.667 -161 351c0 142.667 69 283.334 207 422.001c116.667 118 273.334 226 470.001 324
v-275c-109.333 -42.667 -213 -102.667 -311 -180c-118.667 -92 -178 -175 -178 -249c0 -72 45 -130 135 -174c86.667 -42.667 195 -64 325 -64c165.333 0 301 35.333 407 106c114.667 76.667 172 182.334 172 317.001c0 116 -34.667 234.333 -104 355l243 78
c22.667 -51.333 41.334 -122.666 56.001 -213.999c9.33301 -57.333 25.666 -86 48.999 -86h77c103.333 0 201.333 11 294 33c111.333 26.667 177.666 63 199 109c8.66699 16.667 13 31 13 43c0 30.667 -26.333 46 -79 46c-62.667 0 -127.667 -17.333 -195 -52
c-76.667 -40 -138.334 -94 -185.001 -162v253c44 58 100.833 104.5 170.5 139.5s140.167 52.5 211.501 52.5c86 0 152.667 -25.667 200 -77c44 -46.667 66 -108 66 -184c0 -59.333 -13.667 -115 -41 -167zM1744 821.996v258h257v-258h-257z" />
    <glyph glyph-name="uFEBF" unicode="&#x636;" horiz-adv-x="1251" arabic-form="initial" 
d="M415 0c-32.667 0 -58.667 9.99805 -78 29.998c-11.333 11.333 -22 29.333 -32 54c-8 20 -14.333 30 -19 30c-2.66699 0 -23 -19 -61 -57s-75.333 -57 -112 -57h-132v283h93c88.667 0 167.334 98 236.001 294l208 -97c-1.33301 -7.33301 -15.5 -32.666 -42.5 -75.999
s-40.5 -73.666 -40.5 -90.999c0 -20 14 -30 42 -30h79c103.333 0 201.666 11 294.999 33c110.667 26.667 177 63 199 109c8 16.667 12 31 12 43c0 30.667 -26 46 -78 46c-63.333 0 -128.666 -17.333 -195.999 -52c-76.667 -40 -138.334 -94 -185.001 -162v253
c44 58 100.833 104.5 170.5 139.5s140.167 52.5 211.5 52.5c86 0 152.667 -25.667 200 -77c44 -46.667 66 -108 66 -184c0 -136 -68.333 -252 -205 -348c-128.667 -90.667 -272.667 -136 -432 -136h-199zM603 821.998v258h257v-258h-257z" />
    <glyph glyph-name="uFEC0" unicode="&#x636;" horiz-adv-x="1288" arabic-form="medial" 
d="M406 0c-33.333 0 -59.665 9.99805 -78.998 29.998c-11.333 11.333 -22 29.333 -32 54c-7.33301 20 -13.666 30 -18.999 30c-2 0 -22 -19 -60 -57s-75.333 -57 -112 -57h-123v283h83c89.333 0 168 98 236 294l208 -97c-1.33301 -7.33301 -15.5 -32.666 -42.5 -75.999
s-40.5 -73.666 -40.5 -90.999c0 -20 14.333 -30 43 -30h78c104 0 202.333 11 295 33c110.667 26.667 177 63 199 109c8 16.667 12 31 12 43c0 30.667 -26 46 -78 46c-62.667 0 -128 -17.333 -196 -52c-76.667 -40 -138.334 -94 -185.001 -162v253c44 58 101 104.5 171 139.5
s140.667 52.5 212 52.5c86 0 152.667 -25.667 200 -77c43.333 -46.667 65 -108 65 -184c0 -59.333 -13.667 -115 -41 -167c5.33301 -22.667 18.666 -34 39.999 -34h68v-283h-115c-40 -0 -72.167 21.833 -96.5 65.5s-41.833 65.5 -52.5 65.5
c-4.66699 0 -25.334 -11.333 -62.001 -34c-44.667 -26.667 -90.667 -47.667 -138 -63c-71.333 -22.667 -151.333 -34 -240 -34h-198zM603.001 822.998v259h257v-259h-257z" />
    <glyph glyph-name="uFEC2" unicode="&#x637;" horiz-adv-x="956" arabic-form="final" 
d="M316 605c10.667 121.333 11.335 231.998 2.00195 331.998c-2.66699 32.667 -18.667 110.334 -48 233.001l256 76c10 -51.333 23 -126.666 39 -225.999c6 -52 3.33301 -147.333 -8 -286c33.333 7.33301 65.333 11 96 11c86 0 152.667 -25.667 200 -77
c43.333 -46.667 65 -108 65 -184c0 -59.333 -13.667 -115 -41 -167c5.33301 -22.667 18.333 -34 39 -34h59v-283h-105c-40 -0 -72.167 21.833 -96.5 65.5s-41.833 65.5 -52.5 65.5c-4.66699 0 -25.334 -11.333 -62.001 -34c-44.667 -26.667 -90.667 -47.667 -138 -63
c-71.333 -22.667 -151.333 -34 -240 -34h-131v283h73c104 0 202.333 11 295 33c110.667 26.667 177 63 199 109c8 16.667 12 31 12 43c0 30.667 -26 46 -78 46c-62.667 0 -128 -17.333 -196 -52c-76.667 -40 -138.334 -94 -185.001 -162v253c14.667 18 30 35.333 46 52z" />
    <glyph glyph-name="uFEC3" unicode="&#x637;" horiz-adv-x="774" arabic-form="initial" 
d="M170 944c-2.66699 33.333 -17.332 108.667 -43.999 226l256 76c8 -52 19 -127.667 33 -227c8 -68 7 -163 -3 -285c33.333 7.33301 65.333 11 96 11c86 0 152.667 -25.667 200 -77c44 -46.667 66 -108 66 -184c0 -136 -68.667 -252 -206 -348
c-128 -90.667 -272 -136 -432 -136h-155v283h98c103.333 0 201.333 11 294 33c110.667 26.667 177 63 199 109c8 16.667 12 31 12 43c0 30.667 -26 46 -78 46c-62.667 0 -128 -17.333 -196 -52c-76 -40 -137.333 -94 -184 -162v253c14 18 29.333 35.333 46 52
c7.33301 92.667 6.66602 205.667 -2.00098 339z" />
    <glyph glyph-name="uFEC4" unicode="&#x637;" horiz-adv-x="806" arabic-form="medial" 
d="M407 734c33.333 7.33301 65.334 10.998 96.001 10.998c86 0 152.667 -25.667 200 -77c44 -46.667 66 -108 66 -184c0 -59.333 -13.667 -115 -41 -167c5.33301 -22.667 18.333 -34 39 -34h58v-283h-104c-40 0 -72.167 21.833 -96.5 65.5s-42.166 65.5 -53.499 65.5
c-4 0 -24.667 -11.333 -62 -34c-44 -26.667 -89.667 -47.667 -137 -63c-72 -22.667 -152.333 -34 -241 -34h-150v283h93c103.333 0 201.333 11 294 33c111.333 26.667 178 63 200 109c8 16.667 12 31 12 43c0 30.667 -26.333 46 -79 46c-62.667 0 -127.667 -17.333 -195 -52
c-76.667 -40 -138.334 -94 -185.001 -162v253c14 18 29.333 35.333 46 52c10 121.333 10.667 232 2 332c-3.33301 32.667 -19.333 110.334 -48 233.001l256 76c10 -45.333 22.667 -120.666 38 -225.999c5.33301 -64 2.66602 -159.333 -8.00098 -286z" />
    <glyph glyph-name="uFEC6" unicode="&#x638;" horiz-adv-x="956" arabic-form="final" 
d="M316 605c10.667 121.333 11.335 231.998 2.00195 331.998c-2.66699 32.667 -18.667 110.334 -48 233.001l256 76c10 -51.333 23 -126.666 39 -225.999c6 -52 3.33301 -147.333 -8 -286c33.333 7.33301 65.333 11 96 11c86 0 152.667 -25.667 200 -77
c43.333 -46.667 65 -108 65 -184c0 -59.333 -13.667 -115 -41 -167c5.33301 -22.667 18.333 -34 39 -34h59v-283h-105c-40 -0 -72.167 21.833 -96.5 65.5s-41.833 65.5 -52.5 65.5c-4.66699 0 -25.334 -11.333 -62.001 -34c-44.667 -26.667 -90.667 -47.667 -138 -63
c-71.333 -22.667 -151.333 -34 -240 -34h-131v283h73c104 0 202.333 11 295 33c110.667 26.667 177 63 199 109c8 16.667 12 31 12 43c0 30.667 -26 46 -78 46c-62.667 0 -128 -17.333 -196 -52c-76.667 -40 -138.334 -94 -185.001 -162v253c14.667 18 30 35.333 46 52z
M675.001 986.998v259h257v-259h-257z" />
    <glyph glyph-name="uFEC7" unicode="&#x638;" horiz-adv-x="771" arabic-form="initial" 
d="M170 944c-2.66699 33.333 -17.332 108.667 -43.999 226l256 76c8 -52 19 -127.667 33 -227c8 -68 7 -163 -3 -285c33.333 7.33301 65.333 11 96 11c86 0 152.667 -25.667 200 -77c44 -46.667 66 -108 66 -184c0 -136 -68.667 -252 -206 -348
c-128 -90.667 -272 -136 -432 -136h-155v283h98c103.333 0 201.333 11 294 33c110.667 26.667 177 63 199 109c8 16.667 12 31 12 43c0 30.667 -26 46 -78 46c-62.667 0 -128 -17.333 -196 -52c-76 -40 -137.333 -94 -184 -162v253c14 18 29.333 35.333 46 52
c7.33301 92.667 6.66602 205.667 -2.00098 339zM512.002 987.001v259h257v-259h-257z" />
    <glyph glyph-name="uFEC8" unicode="&#x638;" horiz-adv-x="806" arabic-form="medial" 
d="M407 734c33.333 7.33301 65.334 10.998 96.001 10.998c86 0 152.667 -25.667 200 -77c44 -46.667 66 -108 66 -184c0 -59.333 -13.667 -115 -41 -167c5.33301 -22.667 18.333 -34 39 -34h58v-283h-104c-40 0 -72.167 21.833 -96.5 65.5s-42.166 65.5 -53.499 65.5
c-4 0 -24.667 -11.333 -62 -34c-44 -26.667 -89.667 -47.667 -137 -63c-72 -22.667 -152.333 -34 -241 -34h-150v283h93c103.333 0 201.333 11 294 33c111.333 26.667 178 63 200 109c8 16.667 12 31 12 43c0 30.667 -26.333 46 -79 46c-62.667 0 -127.667 -17.333 -195 -52
c-76.667 -40 -138.334 -94 -185.001 -162v253c14 18 29.333 35.333 46 52c10 121.333 10.667 232 2 332c-3.33301 32.667 -19.333 110.334 -48 233.001l256 76c10 -45.333 22.667 -120.666 38 -225.999c5.33301 -64 2.66602 -159.333 -8.00098 -286zM531.001 986.998v259
h257v-259h-257z" />
    <glyph glyph-name="uFECA" unicode="&#x639;" horiz-adv-x="1168" arabic-form="final" 
d="M1187 0l-340.001 -0.000976562c-84 0 -148.667 38.667 -194 116c-78 -30 -141.333 -83.167 -190 -159.5s-73 -157.833 -73 -244.5c0 -120.667 51.667 -215 155 -283s246.333 -102 429 -102c44.667 0 91 2.33301 139 7v-276c-48.667 -4.66699 -96 -7 -142 -7
c-246.667 0 -443.334 55.667 -590.001 167c-154 116.667 -231 280 -231 490c0 100 29.333 201.333 88 304c54.667 94.667 123.334 174 206.001 238v74c0 35.333 -27.333 61.333 -82 78c-37.333 12 -78.666 18 -123.999 18v255c200 62.667 387 94 561 94
c88 0 157.333 -21.5 208 -64.5s76 -99.167 76 -168.5c0 -95.333 -57.333 -179.666 -172 -252.999h276v-283zM806.999 491.999c-4 10.667 -30.999 15.667 -80.999 15c-48.667 -0.666992 -87.667 -5.66699 -117 -15c26 -20.667 38.667 -47.667 38 -81
c0 -13.333 -2.66699 -26.333 -8 -39c29.333 10 65 29 107 57c45.333 30 65.666 51 60.999 63z" />
    <glyph glyph-name="uFECB" unicode="&#x639;" horiz-adv-x="885" arabic-form="initial" 
d="M107 422c0 86 64.667 185.001 194 297.001c124 107.333 253.667 183.333 389 228v-278c-12.667 2.66699 -26 4 -40 4c-62.667 0 -122.334 -18.5 -179.001 -55.5s-85 -77.833 -85 -122.5c0 -48.667 22 -90.834 66 -126.501s96 -53.5 156 -53.5c96 0 188.333 24.333 277 73
v-270l-288 -43c-7.33301 -1.33301 -80.666 -16 -219.999 -44c-102 -20.667 -182.667 -31 -242 -31h-154v283h183c-38 44.667 -57 91 -57 139z" />
    <glyph glyph-name="uFECC" unicode="&#x639;" horiz-adv-x="1008" arabic-form="medial" 
d="M657 492c-4.66699 10.667 -32 15.668 -82 15.001c-48 -0.666992 -87 -5.66699 -117 -15c26 -20.667 39 -47.334 39 -80.001c0 -14 -2.66699 -27.333 -8 -40c29.333 10 65 29 107 57c44.667 30 65 51 61 63zM123 0.000976562l-141.999 -0.000976562v283h179
c69.333 0 113.666 9 132.999 27c0 73.333 -68.667 110 -206 110v255c200 62.667 387 94 561 94c88 0 158 -21.667 210 -65c50 -42.667 75 -98.667 75 -168c0 -95.333 -57.667 -179.666 -173 -252.999h267v-283h-330c-108.667 0 -180 38.667 -214 116
c-39.333 -32.667 -94.5 -60.167 -165.5 -82.5s-135.833 -33.5 -194.5 -33.5z" />
    <glyph glyph-name="uFECE" unicode="&#x63a;" horiz-adv-x="1162" arabic-form="final" 
d="M1187 0l-340.001 -0.000976562c-84 0 -148.667 38.667 -194 116c-78 -30 -141.333 -83.167 -190 -159.5s-73 -157.833 -73 -244.5c0 -120.667 51.667 -215 155 -283s246.333 -102 429 -102c44.667 0 91 2.33301 139 7v-276c-48.667 -4.66699 -96 -7 -142 -7
c-246.667 0 -443.334 55.667 -590.001 167c-154 116.667 -231 280 -231 490c0 100 29.333 201.333 88 304c54.667 94.667 123.334 174 206.001 238v74c0 35.333 -27.333 61.333 -82 78c-37.333 12 -78.666 18 -123.999 18v255c200 62.667 387 94 561 94
c88 0 157.333 -21.5 208 -64.5s76 -99.167 76 -168.5c0 -95.333 -57.333 -179.666 -172 -252.999h276v-283zM806.999 491.999c-4 10.667 -30.999 15.667 -80.999 15c-48.667 -0.666992 -87.667 -5.66699 -117 -15c26 -20.667 38.667 -47.667 38 -81
c0 -13.333 -2.66699 -26.333 -8 -39c29.333 10 65 29 107 57c45.333 30 65.666 51 60.999 63zM558 875.999v259h257v-259h-257z" />
    <glyph glyph-name="uFECF" unicode="&#x63a;" horiz-adv-x="882" arabic-form="initial" 
d="M107 422c0 86 64.667 185.001 194 297.001c124 107.333 253.667 183.333 389 228v-278c-12.667 2.66699 -26 4 -40 4c-62.667 0 -122.334 -18.5 -179.001 -55.5s-85 -77.833 -85 -122.5c0 -48.667 22 -90.834 66 -126.501s96 -53.5 156 -53.5c96 0 188.333 24.333 277 73
v-270l-288 -43c-7.33301 -1.33301 -80.666 -16 -219.999 -44c-102 -20.667 -182.667 -31 -242 -31h-154v283h183c-38 44.667 -57 91 -57 139zM433 1043v259h257v-259h-257z" />
    <glyph glyph-name="uFED0" unicode="&#x63a;" horiz-adv-x="1007" arabic-form="medial" 
d="M657 492c-4.66699 10.667 -32 15.668 -82 15.001c-48 -0.666992 -87 -5.66699 -117 -15c26 -20.667 39 -47.334 39 -80.001c0 -14 -2.66699 -27.333 -8 -40c29.333 10 65 29 107 57c44.667 30 65 51 61 63zM123 0.000976562l-141.999 -0.000976562v283h179
c69.333 0 113.666 9 132.999 27c0 73.333 -68.667 110 -206 110v255c200 62.667 387 94 561 94c88 0 158 -21.667 210 -65c50 -42.667 75 -98.667 75 -168c0 -95.333 -57.667 -179.666 -173 -252.999h267v-283h-330c-108.667 0 -180 38.667 -214 116
c-39.333 -32.667 -94.5 -60.167 -165.5 -82.5s-135.833 -33.5 -194.5 -33.5zM433.001 876v259h257v-259h-257z" />
    <glyph glyph-name="uFED2" unicode="&#x641;" horiz-adv-x="1917" arabic-form="final" 
d="M1655 563c0 25.333 -29.332 38 -87.999 38c-59.333 0 -89 -12.667 -89 -38c0 -11.333 12.167 -33.5 36.5 -66.5s42.166 -49.5 53.499 -49.5c12 0 29.5 16.167 52.5 48.5s34.5 54.833 34.5 67.5zM1372 310c-22.667 25.333 -44.668 60.333 -66.001 105
c-26 55.333 -39 104.666 -39 147.999c0 83.333 37.667 158 113 224c69.333 61.333 139 92 209 92c64 0 125 -29.667 183 -89c62 -63.333 93 -135.333 93 -216c0 -44.667 -14.333 -96.334 -43 -155.001c-22 -47.333 -46.333 -86.666 -73 -117.999
c21.333 -12.667 50 -18.667 86 -18l101 1v-284h-130c-56.667 0 -106 12.333 -148 37c-16 9.33301 -46.333 33.333 -91 72c-101.333 -54 -205 -87.333 -311 -100c-49.333 -6 -158.666 -9 -327.999 -9c-518.667 0 -778 118.667 -778 356c0 120.667 88 249.667 264 387
c142.667 111.333 295 197.333 457 258l1 -275c-91.333 -18 -197.333 -58.667 -318 -122c-134 -71.333 -201 -132 -201 -182c0 -92 191.667 -138 575 -138h262c83.333 2.66699 144 11.334 182 26.001zM1463 1068v259h257v-259h-257z" />
    <glyph glyph-name="uFED3" unicode="&#x641;" horiz-adv-x="647" arabic-form="initial" 
d="M448 593c-5.33301 37.333 -22.332 69 -50.999 95c-30.667 27.333 -67 41 -109 41c-44 0 -66 -20 -66 -60c0 -10 3.33301 -19 10 -27c35.333 -41.333 78.666 -62 129.999 -62c23.333 0 52 4.33301 86 13zM415.001 339c-29.333 -4.66699 -57.666 -7.00098 -84.999 -7.00098
c-82 0 -148 20.333 -198 61c-52 42.667 -78 101 -78 175c0 102.667 27.833 195.5 83.5 278.5s119.167 124.5 190.5 124.5c101.333 0 183 -59.333 245 -178c49.333 -95.333 74 -194.666 74 -297.999c0 -142 -46.833 -260 -140.5 -354s-212.5 -141 -356.5 -141h-169v283h202
c82 0 130 1 144 3c51.333 6 80.666 23.667 87.999 53zM207.001 1068v259h257v-259h-257z" />
    <glyph glyph-name="uFED4" unicode="&#x641;" horiz-adv-x="729" arabic-form="medial" 
d="M748 0h-131c-56 -0 -105.333 12.333 -148 37c-16 9.33301 -46 33.333 -90 72c-67.333 -72.667 -164.666 -109 -291.999 -109h-106v283h216c-22.667 25.333 -47 65 -73 119c-30 64 -45 117.667 -45 161c0 83.333 37.333 158 112 224c69.333 61.333 139.333 92 210 92
c63.333 0 124 -29.667 182 -89c62 -63.333 93 -135.333 93 -216c0 -44.667 -14 -96.334 -42 -155.001c-22.667 -47.333 -47.334 -86.666 -74.001 -117.999c21.333 -12.667 50 -18.667 86 -18l102 1v-284zM475 567c0 28 -31.999 42 -95.999 42c-65.333 0 -98 -14 -98 -42
c0 -12.667 13 -36.667 39 -72c27.333 -37.333 47.333 -56 60 -56c13.333 0 32.666 18.333 57.999 55c24.667 34.667 37 59 37 73zM274.001 1068v259h257v-259h-257z" />
    <glyph glyph-name="uFED6" unicode="&#x642;" horiz-adv-x="1705" arabic-form="final" 
d="M1378 315c-5.33301 37.333 -22.3311 69 -50.998 95c-30.667 27.333 -67.334 41 -110.001 41c-43.333 0 -65 -20 -65 -60c0 -10 3.33301 -19 10 -27c35.333 -41.333 78.666 -62 129.999 -62c23.333 0 52 4.33301 86 13zM1573 284l151.999 -0.000976562v-284h-176
c-48 -174.667 -148.333 -314.667 -301 -420c-145.333 -99.333 -310 -149 -494 -149c-184.667 0 -332.667 47 -444 141c-107.333 90.667 -161 207.667 -161 351c0 142.667 69 283.334 207 422.001c116.667 118 273.334 226 470.001 324v-275
c-109.333 -42.667 -213 -102.667 -311 -180c-118.667 -92 -178 -175 -178 -249c0 -72 45 -130 135 -174c86.667 -42.667 195 -64 325 -64c159.333 0 289.666 30 390.999 90c104.667 61.333 157 142.666 157 243.999c-29.333 -4.66699 -57.666 -7 -84.999 -7
c-82 0 -148 20.333 -198 61c-52 42.667 -78 101 -78 175c0 102 27.833 194.167 83.5 276.5s119.167 123.5 190.5 123.5c84.667 0 157 -44 217 -132c53.333 -77.333 86 -168.666 98 -273.999zM1169 862.999v259h256v-259h-256zM835.001 862.999v259h257v-259h-257z" />
    <glyph glyph-name="uFED7" unicode="&#x642;" horiz-adv-x="647" arabic-form="initial" 
d="M448 593c-5.33301 37.333 -22.332 69 -50.999 95c-30.667 27.333 -67 41 -109 41c-44 0 -66 -20 -66 -60c0 -10 3.33301 -19 10 -27c35.333 -41.333 78.666 -62 129.999 -62c23.333 0 52 4.33301 86 13zM415.001 339c-29.333 -4.66699 -57.666 -7.00098 -84.999 -7.00098
c-82 0 -148 20.333 -198 61c-52 42.667 -78 101 -78 175c0 102.667 27.833 195.5 83.5 278.5s119.167 124.5 190.5 124.5c101.333 0 183 -59.333 245 -178c49.333 -95.333 74 -194.666 74 -297.999c0 -142 -46.833 -260 -140.5 -354s-212.5 -141 -356.5 -141h-169v283h202
c82 0 130 1 144 3c51.333 6 80.666 23.667 87.999 53zM363.001 1068v259h257v-259h-257zM30.001 1068v259h257v-259h-257z" />
    <glyph glyph-name="uFED8" unicode="&#x642;" horiz-adv-x="729" arabic-form="medial" 
d="M748 0h-131c-56 -0 -105.333 12.333 -148 37c-16 9.33301 -46 33.333 -90 72c-67.333 -72.667 -164.666 -109 -291.999 -109h-106v283h216c-22.667 25.333 -47 65 -73 119c-30 64 -45 117.667 -45 161c0 83.333 37.333 158 112 224c69.333 61.333 139.333 92 210 92
c63.333 0 124 -29.667 182 -89c62 -63.333 93 -135.333 93 -216c0 -44.667 -14 -96.334 -42 -155.001c-22.667 -47.333 -47.334 -86.666 -74.001 -117.999c21.333 -12.667 50 -18.667 86 -18l102 1v-284zM475 567c0 28 -31.999 42 -95.999 42c-65.333 0 -98 -14 -98 -42
c0 -12.667 13 -36.667 39 -72c27.333 -37.333 47.333 -56 60 -56c13.333 0 32.666 18.333 57.999 55c24.667 34.667 37 59 37 73zM421.001 1068v259h257v-259h-257zM87.001 1068v259h257v-259h-257z" />
    <glyph glyph-name="uFEDE" unicode="&#x644;" horiz-adv-x="1720" arabic-form="final" 
d="M1362 446c0 152 -29.668 393.334 -89.001 724.001l247 76c45.333 -249.333 68 -474.333 68 -675c0 -146.667 -1 -228.334 -3 -245.001c11.333 -29.333 38 -44 80 -44h74v-282h-62c-48 0 -90.667 20 -128 60c-12 -48 -24.667 -91.333 -38 -130
c-49.333 -138.667 -142 -255.334 -278 -350.001c-144 -99.333 -303.667 -149 -479 -149c-184.667 0 -332.667 47 -444 141c-107.333 90.667 -161 207.667 -161 351c0 142.667 69 283.334 207 422.001c116.667 118 273.334 226 470.001 324v-275
c-109.333 -42.667 -213 -102.667 -311 -180c-118.667 -92 -178 -175 -178 -249c0 -72 45 -130 135 -174c86.667 -42.667 195 -64 325 -64c138.667 0 248 19.333 328 58c48 23.333 97.333 63.333 148 120c59.333 66 89 246.333 89 541z" />
    <glyph glyph-name="uFEDF" unicode="&#x644;" horiz-adv-x="465" arabic-form="initial" 
d="M460 521c0 -139.333 -35.667 -259.667 -107 -361c-75.333 -106.667 -169 -160 -281 -160h-91v283h100c99.333 0 149 57 149 171c0 257.333 -14.667 496 -44 716l243 76c20.667 -325.333 31 -567 31 -725z" />
    <glyph glyph-name="uFEE0" unicode="&#x644;" horiz-adv-x="609" arabic-form="medial" 
d="M628 283v-282.999h-148c-25.333 0 -53.5 10 -84.5 30s-53.5 41.333 -67.5 64c-30.667 -24.667 -71.5 -46.5 -122.5 -65.5s-95.167 -28.5 -132.5 -28.5h-92v283h114c51.333 0 85 30.667 101 92c9.33301 38 14 113.333 14 226c0 132 -12.333 321.667 -37 569l280 76
c-15.333 -300.667 -23 -501.334 -23 -602.001c0 -110 4.33301 -185.667 13 -227c18 -89.333 57.333 -134 118 -134h67z" />
    <glyph glyph-name="uFEE2" unicode="&#x645;" horiz-adv-x="1307" arabic-form="final" 
d="M1326 0h-39.999c-29.333 0 -57 12 -83 36s-42.333 51.333 -49 82c-34.667 -53.333 -76.667 -90.333 -126 -111c-46.667 -20 -111.334 -30 -194.001 -30c-70 0 -116.833 20.667 -140.5 62s-64.167 62 -121.5 62c-82.667 0 -137.667 -53 -165 -159
c-16.667 -61.333 -25 -162 -25 -302c0 -181.333 10.333 -323.666 31 -426.999h-239c-16 116 -24 241.667 -24 377c0 449.333 139.333 709.666 418 780.999c18 30.667 38 83 60 157c20.667 70 39.667 118 57 144c28 42 66.667 63 116 63c70 0 152.333 -45.667 247 -137
c98 -96 147 -186.333 147 -271c7.33301 -29.333 31 -44 71 -44h60v-283zM971.001 320c0 25.333 -17.667 52.667 -53 82c-32 26 -64.667 44 -98 54l-60 -157c43.333 -26 87.333 -39 132 -39c52.667 0 79 20 79 60z" />
    <glyph glyph-name="uFEE3" unicode="&#x645;" horiz-adv-x="846" arabic-form="initial" 
d="M622 320c0 25.333 -17.667 52.667 -53 82c-32 26 -64.667 44 -98 54l-60 -157c43.333 -26 87.333 -39 132 -39c52.667 0 79 20 79 60zM846 224.001c-23.333 -168 -114.668 -251.999 -274.001 -251.999c-28 0 -57 3.33301 -87 10
c-64.667 13.333 -108.334 32.333 -131.001 57c-16 18 -29 52 -39 102c-90 -94 -183.333 -141 -280 -141h-54v283h57c90.667 0 151.334 29.333 182.001 88c15.333 30 34.333 83.667 57 161c20.667 68 40.334 115.333 59.001 142c28 40.667 66.667 61 116 61
c72.667 0 155 -47.667 247 -143c100.667 -104.667 151 -212.667 151 -324c0 -14.667 -1.33301 -29.334 -4 -44.001z" />
    <glyph glyph-name="uFEE4" unicode="&#x645;" horiz-adv-x="966" arabic-form="medial" 
d="M622 320c0 25.333 -17.668 52.667 -53.001 82c-32 26 -64.667 44 -98 54l-60 -157c42.667 -26 86.334 -39 131.001 -39c53.333 0 80 20 80 60zM219.999 371.001c15.333 30 34.3301 83.668 56.9971 161.001c20.667 68 40.334 115.333 59.001 142
c28 40.667 66.667 61 116 61c70 0 152.333 -45.667 247 -137c98 -96 147 -186.333 147 -271c7.33301 -29.333 31 -44 71 -44h69v-283h-49c-29.333 0 -56.833 12 -82.5 36s-42.167 51.333 -49.5 82c-41.333 -48 -87.333 -82.333 -138 -103
c-45.333 -18.667 -106.666 -30.667 -183.999 -36c-63.333 -4.66699 -107.333 9.66602 -132 42.999c-13.333 19.333 -25.333 59 -36 119c-90 -94 -183.333 -141 -280 -141h-54v283h57c90.667 0 151.334 29.333 182.001 88z" />
    <glyph glyph-name="uFEE6" unicode="&#x646;" horiz-adv-x="1722" arabic-form="final" 
d="M1566 311c14 -18.667 34 -28.002 60 -28.002h115v-283h-125c-24 0 -48 8.66699 -72 26c-30 -170.667 -124 -313.667 -282 -429c-153.333 -110.667 -322.666 -166 -507.999 -166c-184.667 0 -332.667 47 -444 141c-107.333 90.667 -161 207.667 -161 351
s67.333 284 202 422c115.333 118.667 270.666 226.667 465.999 324v-275c-108 -42 -210.333 -102 -307 -180c-115.333 -92 -173 -175 -173 -249c0 -72 45 -130 135 -174c86.667 -42.667 195 -64 325 -64c165.333 0 301 35.333 407 106
c114.667 76.667 172 182.334 172 317.001c0 110.667 -37.667 232.334 -113 365.001l242 77c36 -80 56.333 -173.667 61 -281zM974 712.998v259h257v-259h-257z" />
    <glyph glyph-name="uFEE7" unicode="&#x646;" horiz-adv-x="521" arabic-form="initial" 
d="M142 0h-161v283h189c47.333 0 79.333 3 96 9c36 14 54 44.333 54 91c0 69.333 -21.667 147.333 -65 234l243 97c17.333 -68 26 -136 26 -204c0 -147.333 -29.667 -266.333 -89 -357c-68 -102 -165.667 -153 -293 -153zM169 815v259h257v-259h-257z" />
    <glyph glyph-name="uFEE8" unicode="&#x646;" horiz-adv-x="802" arabic-form="medial" 
d="M559 0c-32.667 0 -58.667 9.99805 -78 29.998c-11.333 11.333 -22 29.333 -32 54c-8 20 -14.667 30 -20 30c-2 0 -22 -19 -60 -57s-75.333 -57 -112 -57h-276v283h237c88.667 0 167 98 235 294l208 -97c-1.33301 -7.33301 -15.5 -32.666 -42.5 -75.999
s-40.5 -73.666 -40.5 -90.999c0 -20 14.333 -30 43 -30h202v-283h-264zM236 747.998v259h257v-259h-257z" />
    </font>
</defs>
</svg>
